<?xml version="1.0" encoding="us-ascii" standalone="no"?><svg xmlns="http://www.w3.org/2000/svg" xmlns:xlink="http://www.w3.org/1999/xlink" contentStyleType="text/css" height="1423px" preserveAspectRatio="none" style="width:559px;height:1423px;background:#FFFFFF;" version="1.1" viewBox="0 0 559 1423" width="559px" zoomAndPan="magnify"><defs/><g><text fill="#000000" font-family="sans-serif" font-size="14" font-weight="bold" lengthAdjust="spacing" textLength="252" x="143.25" y="24.5332">Diagrama de Estados - Ciclo del Bus</text><!--cluster FinDelDia--><g id="cluster_FinDelDia"><path d="M216,1124.6094 L533,1124.6094 A12.5,12.5 0 0 1 545.5,1137.1094 L545.5,1147.2188 L203.5,1147.2188 L203.5,1137.1094 A12.5,12.5 0 0 1 216,1124.6094 " fill="#F1F1F1" style="stroke:#F1F1F1;stroke-width:1.0;"/><rect fill="none" height="216" rx="12.5" ry="12.5" style="stroke:#181818;stroke-width:0.5;" width="342" x="203.5" y="1124.6094"/><line style="stroke:#181818;stroke-width:0.5;" x1="203.5" x2="545.5" y1="1147.2188" y2="1147.2188"/><text fill="#000000" font-family="sans-serif" font-size="14" lengthAdjust="spacing" textLength="62" x="343.5" y="1143.1426">FinDelDia</text></g><ellipse cx="270.5" cy="1178.6094" fill="#222222" rx="10" ry="10" style="stroke:#222222;stroke-width:1.0;"/><g id="FinDelDia.Regreso"><rect fill="#F1F1F1" height="50" rx="12.5" ry="12.5" style="stroke:#181818;stroke-width:0.5;" width="74" x="235.5" y="1266.6094"/><line style="stroke:#181818;stroke-width:0.5;" x1="235.5" x2="309.5" y1="1294.2188" y2="1294.2188"/><text fill="#000000" font-family="sans-serif" font-size="14" lengthAdjust="spacing" textLength="54" x="245.5" y="1286.1426">Regreso</text></g><ellipse cx="211.5" cy="54.6094" fill="#222222" rx="10" ry="10" style="stroke:#222222;stroke-width:1.0;"/><path d="M93.5,142.6094 L329,142.6094 A12.5,12.5 0 0 1 341.5,155.1094 L341.5,170.2188 L81,170.2188 L81,155.1094 A12.5,12.5 0 0 1 93.5,142.6094 " fill="#F1F1F1" style="stroke:#F1F1F1;stroke-width:1.0;"/><rect fill="none" height="467.6094" rx="12.5" ry="12.5" style="stroke:#181818;stroke-width:0.5;" width="260.5" x="81" y="142.6094"/><line style="stroke:#181818;stroke-width:0.5;" x1="81" x2="341.5" y1="170.2188" y2="170.2188"/><text fill="#000000" font-family="sans-serif" font-size="14" lengthAdjust="spacing" textLength="77" x="172.75" y="162.1426">Preparacion</text><ellipse cx="162.5" cy="191.2188" fill="#222222" rx="10" ry="10" style="stroke:#222222;stroke-width:1.0;"/><g id="Preparacion.SubidaConductor"><rect fill="#F1F1F1" height="50" rx="12.5" ry="12.5" style="stroke:#181818;stroke-width:0.5;" width="130" x="97.5" y="238.2188"/><line style="stroke:#181818;stroke-width:0.5;" x1="97.5" x2="227.5" y1="265.8281" y2="265.8281"/><text fill="#000000" font-family="sans-serif" font-size="14" lengthAdjust="spacing" textLength="110" x="107.5" y="257.752">SubidaConductor</text></g><g id="Preparacion.ConfiguracionRuta"><rect fill="#F1F1F1" height="50" rx="12.5" ry="12.5" style="stroke:#181818;stroke-width:0.5;" width="138" x="93.5" y="342.2188"/><line style="stroke:#181818;stroke-width:0.5;" x1="93.5" x2="231.5" y1="369.8281" y2="369.8281"/><text fill="#000000" font-family="sans-serif" font-size="14" lengthAdjust="spacing" textLength="118" x="103.5" y="361.752">ConfiguracionRuta</text></g><g id="Preparacion.VerificacionHorario"><rect fill="#F1F1F1" height="50" rx="12.5" ry="12.5" style="stroke:#181818;stroke-width:0.5;" width="139" x="93" y="446.2188"/><line style="stroke:#181818;stroke-width:0.5;" x1="93" x2="232" y1="473.8281" y2="473.8281"/><text fill="#000000" font-family="sans-serif" font-size="14" lengthAdjust="spacing" textLength="119" x="103" y="465.752">VerificacionHorario</text></g><g id="Preparacion.Salida"><rect fill="#F1F1F1" height="50" rx="12.5" ry="12.5" style="stroke:#181818;stroke-width:0.5;" width="59" x="133" y="550.2188"/><line style="stroke:#181818;stroke-width:0.5;" x1="133" x2="192" y1="577.8281" y2="577.8281"/><text fill="#000000" font-family="sans-serif" font-size="14" lengthAdjust="spacing" textLength="39" x="143" y="569.752">Salida</text></g><!--link *start*Preparacion to SubidaConductor--><g id="link_*start*Preparacion_SubidaConductor"><path d="M162.5,201.3687 C162.5,210.6388 162.5,219.3588 162.5,231.9987 " fill="none" id="*start*Preparacion-to-SubidaConductor" style="stroke:#181818;stroke-width:1.0;"/><polygon fill="#181818" points="162.5,237.9987,166.5,228.9987,162.5,232.9987,158.5,228.9987,162.5,237.9987" style="stroke:#181818;stroke-width:1.0;"/></g><!--link SubidaConductor to ConfiguracionRuta--><g id="link_SubidaConductor_ConfiguracionRuta"><path d="M162.5,288.3888 C162.5,304.5288 162.5,319.6888 162.5,335.8688 " fill="none" id="SubidaConductor-to-ConfiguracionRuta" style="stroke:#181818;stroke-width:1.0;"/><polygon fill="#181818" points="162.5,341.8688,166.5,332.8688,162.5,336.8688,158.5,332.8688,162.5,341.8688" style="stroke:#181818;stroke-width:1.0;"/><text fill="#000000" font-family="sans-serif" font-size="13" lengthAdjust="spacing" textLength="168" x="163.5" y="320.7139">"Conductor sube y configura"</text></g><!--link ConfiguracionRuta to VerificacionHorario--><g id="link_ConfiguracionRuta_VerificacionHorario"><path d="M162.5,392.3887 C162.5,408.5288 162.5,423.6888 162.5,439.8688 " fill="none" id="ConfiguracionRuta-to-VerificacionHorario" style="stroke:#181818;stroke-width:1.0;"/><polygon fill="#181818" points="162.5,445.8688,166.5,436.8688,162.5,440.8688,158.5,436.8688,162.5,445.8688" style="stroke:#181818;stroke-width:1.0;"/><text fill="#000000" font-family="sans-serif" font-size="13" lengthAdjust="spacing" textLength="110" x="163.5" y="424.7139">"Verifica el horario"</text></g><!--link VerificacionHorario to Salida--><g id="link_VerificacionHorario_Salida"><path d="M162.5,496.3888 C162.5,512.5288 162.5,527.6888 162.5,543.8688 " fill="none" id="VerificacionHorario-to-Salida" style="stroke:#181818;stroke-width:1.0;"/><polygon fill="#181818" points="162.5,549.8688,166.5,540.8688,162.5,544.8688,158.5,540.8688,162.5,549.8688" style="stroke:#181818;stroke-width:1.0;"/><text fill="#000000" font-family="sans-serif" font-size="13" lengthAdjust="spacing" textLength="141" x="163.5" y="528.7139">"Sale del lugar principal"</text></g><path d="M19.5,688.6094 L403.5,688.6094 A12.5,12.5 0 0 1 416,701.1094 L416,716.2188 L7,716.2188 L7,701.1094 A12.5,12.5 0 0 1 19.5,688.6094 " fill="#F1F1F1" style="stroke:#F1F1F1;stroke-width:1.0;"/><rect fill="none" height="363.6094" rx="12.5" ry="12.5" style="stroke:#181818;stroke-width:0.5;" width="409" x="7" y="688.6094"/><line style="stroke:#181818;stroke-width:0.5;" x1="7" x2="416" y1="716.2188" y2="716.2188"/><text fill="#000000" font-family="sans-serif" font-size="14" lengthAdjust="spacing" textLength="47" x="188" y="708.1426">EnRuta</text><ellipse cx="218" cy="737.2188" fill="#222222" rx="10" ry="10" style="stroke:#222222;stroke-width:1.0;"/><g id="EnRuta.Parada"><rect fill="#F1F1F1" height="50" rx="12.5" ry="12.5" style="stroke:#181818;stroke-width:0.5;" width="66" x="185" y="784.2188"/><line style="stroke:#181818;stroke-width:0.5;" x1="185" x2="251" y1="811.8281" y2="811.8281"/><text fill="#000000" font-family="sans-serif" font-size="14" lengthAdjust="spacing" textLength="46" x="195" y="803.752">Parada</text></g><g id="EnRuta.RecogePasajeros"><rect fill="#F1F1F1" height="50" rx="12.5" ry="12.5" style="stroke:#181818;stroke-width:0.5;" width="132" x="19" y="888.2188"/><line style="stroke:#181818;stroke-width:0.5;" x1="19" x2="151" y1="915.8281" y2="915.8281"/><text fill="#000000" font-family="sans-serif" font-size="14" lengthAdjust="spacing" textLength="112" x="29" y="907.752">RecogePasajeros</text></g><g id="EnRuta.DejaPasajeros"><rect fill="#F1F1F1" height="50" rx="12.5" ry="12.5" style="stroke:#181818;stroke-width:0.5;" width="112" x="145" y="992.2188"/><line style="stroke:#181818;stroke-width:0.5;" x1="145" x2="257" y1="1019.8281" y2="1019.8281"/><text fill="#000000" font-family="sans-serif" font-size="14" lengthAdjust="spacing" textLength="92" x="155" y="1011.752">DejaPasajeros</text></g><g id="EnRuta.FinDeRuta"><rect fill="#F1F1F1" height="50" rx="12.5" ry="12.5" style="stroke:#181818;stroke-width:0.5;" width="88" x="174" y="888.2188"/><line style="stroke:#181818;stroke-width:0.5;" x1="174" x2="262" y1="915.8281" y2="915.8281"/><text fill="#000000" font-family="sans-serif" font-size="14" lengthAdjust="spacing" textLength="68" x="184" y="907.752">FinDeRuta</text></g><!--link *start*EnRuta to Parada--><g id="link_*start*EnRuta_Parada"><path d="M218,747.3688 C218,756.6388 218,765.3588 218,777.9988 " fill="none" id="*start*EnRuta-to-Parada" style="stroke:#181818;stroke-width:1.0;"/><polygon fill="#181818" points="218,783.9988,222,774.9988,218,778.9988,214,774.9988,218,783.9988" style="stroke:#181818;stroke-width:1.0;"/></g><!--link Parada to RecogePasajeros--><g id="link_Parada_RecogePasajeros"><path d="M184.87,813.0588 C157.6,817.1888 120,827.3288 98,852.2188 C89.39,861.9588 86.5991,870.0758 85.4491,882.1458 " fill="none" id="Parada-to-RecogePasajeros" style="stroke:#181818;stroke-width:1.0;"/><polygon fill="#181818" points="84.88,888.1188,89.7156,879.5387,85.3542,883.1413,81.7517,878.7799,84.88,888.1188" style="stroke:#181818;stroke-width:1.0;"/><text fill="#000000" font-family="sans-serif" font-size="13" lengthAdjust="spacing" textLength="114" x="99" y="866.7139">"Recoge pasajeros"</text></g><!--link RecogePasajeros to DejaPasajeros--><g id="link_RecogePasajeros_DejaPasajeros"><path d="M112.49,938.3888 C130.85,954.5288 150.4053,971.7254 168.7953,987.9054 " fill="none" id="RecogePasajeros-to-DejaPasajeros" style="stroke:#181818;stroke-width:1.0;"/><polygon fill="#181818" points="173.3,991.8688,169.1852,982.9206,169.5461,988.566,163.9008,988.9269,173.3,991.8688" style="stroke:#181818;stroke-width:1.0;"/><text fill="#000000" font-family="sans-serif" font-size="13" lengthAdjust="spacing" textLength="96" x="150" y="970.7139">"Deja pasajeros"</text></g><!--link DejaPasajeros to Parada--><g id="link_DejaPasajeros_Parada"><path d="M233.31,992.0788 C239.58,986.5888 245.81,980.5188 251,974.2188 C283.88,934.3488 291.73,920.6488 303,870.2188 C304.75,862.4088 307.22,859.0188 303,852.2188 C291.71,834.0387 275.6738,825.3298 257.0138,819.3498 " fill="none" id="DejaPasajeros-to-Parada" style="stroke:#181818;stroke-width:1.0;"/><polygon fill="#181818" points="251.3,817.5188,258.6499,824.0746,256.0615,819.0447,261.0914,816.4562,251.3,817.5188" style="stroke:#181818;stroke-width:1.0;"/><text fill="#000000" font-family="sans-serif" font-size="13" lengthAdjust="spacing" textLength="107" x="299" y="918.7139">"Siguiente parada"</text></g><!--link Parada to FinDeRuta--><g id="link_Parada_FinDeRuta"><path d="M218,834.3888 C218,850.5288 218,865.6888 218,881.8688 " fill="none" id="Parada-to-FinDeRuta" style="stroke:#181818;stroke-width:1.0;"/><polygon fill="#181818" points="218,887.8688,222,878.8688,218,882.8688,214,878.8688,218,887.8688" style="stroke:#181818;stroke-width:1.0;"/><text fill="#000000" font-family="sans-serif" font-size="13" lengthAdjust="spacing" textLength="82" x="219" y="866.7139">"Final de ruta"</text></g><ellipse cx="272.5" cy="1406.6094" fill="none" rx="11" ry="11" style="stroke:#222222;stroke-width:1.0;"/><ellipse cx="272.5" cy="1406.6094" fill="#222222" rx="6" ry="6" style="stroke:#222222;stroke-width:1.0;"/><!--link *start* to Preparacion--><g id="link_*start*_Preparacion"><path d="M211.5,64.8394 C211.5,78.8794 211.5,101.6594 211.5,136.2794 " fill="none" id="*start*-to-Preparacion" style="stroke:#181818;stroke-width:1.0;"/><polygon fill="#181818" points="211.5,142.2794,215.5,133.2794,211.5,137.2794,207.5,133.2794,211.5,142.2794" style="stroke:#181818;stroke-width:1.0;"/><text fill="#000000" font-family="sans-serif" font-size="13" lengthAdjust="spacing" textLength="72" x="212.5" y="109.1045">Inicio del d&#237;a</text></g><!--link Preparacion to EnRuta--><g id="link_Preparacion_EnRuta"><path d="M142.75,610.8894 C142.32,626.9894 143.12,643.0094 145.5,658.6094 C147.01,668.4694 147.6328,672.6426 149.7928,682.7226 " fill="none" id="Preparacion-to-EnRuta" style="stroke:#181818;stroke-width:1.0;"/><polygon fill="#181818" points="151.05,688.5894,153.0754,678.951,150.0024,683.7004,145.253,680.6273,151.05,688.5894" style="stroke:#181818;stroke-width:1.0;"/><text fill="#000000" font-family="sans-serif" font-size="13" lengthAdjust="spacing" textLength="85" x="146.5" y="655.1045">"Entra en ruta"</text></g><!--link EnRuta to Preparacion--><g id="link_EnRuta_Preparacion"><path d="M234.36,688.4494 C235.2,678.3694 235.92,668.3694 236.5,658.6094 C237.42,643.0894 237.7833,633.089 237.6133,616.979 " fill="none" id="EnRuta-to-Preparacion" style="stroke:#181818;stroke-width:1.0;"/><polygon fill="#181818" points="237.55,610.9794,233.6452,620.0211,237.6028,615.9791,241.6447,619.9367,237.55,610.9794" style="stroke:#181818;stroke-width:1.0;"/><text fill="#000000" font-family="sans-serif" font-size="13" lengthAdjust="spacing" textLength="211" x="237.5" y="655.1045">"Repite la ruta si el horario contin&#250;a"</text></g><!--link EnRuta to FinDelDia--><g id="link_EnRuta_FinDelDia"><path d="M211.5,1052.7094 C211.5,1068.9694 211.5,1084.7906 211.5,1099.4044 C211.5,1106.7113 211.5,1113.7163 211.5,1120.3233 C211.5,1121.1492 211.5,1121.9688 211.5,1122.7821 C211.5,1123.1887 211.5,1123.5937 211.5,1123.9971 C211.5,1124.1988 211.5,1118.4001 211.5,1118.601 " fill="none" id="EnRuta-to-FinDelDia" style="stroke:#181818;stroke-width:1.0;"/><polygon fill="#181818" points="211.5,1124.601,215.5,1115.601,211.5,1119.601,207.5,1115.601,211.5,1124.601" style="stroke:#181818;stroke-width:1.0;"/><text fill="#000000" font-family="sans-serif" font-size="13" lengthAdjust="spacing" textLength="109" x="212.5" y="1097.1045">"Horario finalizado"</text></g><!--link *start*FinDelDia to Regreso--><g id="link_*start*FinDelDia_Regreso"><path d="M270.66,1188.6894 C270.97,1205.4694 271.512,1235.8303 271.952,1260.2603 " fill="none" id="*start*FinDelDia-to-Regreso" style="stroke:#181818;stroke-width:1.0;"/><polygon fill="#181818" points="272.06,1266.2594,275.8973,1257.1888,271.97,1261.2602,267.8986,1257.3329,272.06,1266.2594" style="stroke:#181818;stroke-width:1.0;"/><text fill="#000000" font-family="sans-serif" font-size="13" lengthAdjust="spacing" textLength="249" x="272.5" y="1233.1045">"Regresa al lugar principal y termina el d&#237;a"</text></g><!--link Regreso to *end*--><g id="link_Regreso_*end*"><path d="M272.5,1316.8494 C272.5,1341.3594 272.5,1372.0594 272.5,1389.5894 " fill="none" id="Regreso-to-*end*" style="stroke:#181818;stroke-width:1.0;"/><polygon fill="#181818" points="272.5,1395.5894,276.5,1386.5894,272.5,1390.5894,268.5,1386.5894,272.5,1395.5894" style="stroke:#181818;stroke-width:1.0;"/></g><!--SRC=[RL9BJiCm4Dtx5ACiaNe15YneWs1N5OaDOZ5rfc6GQqUElG3K8t41jhqOOxjfcfIi9i_llVa63ePWnTXwt2Cq17KVi74zB639sZY13Dp7NgdNcpTOBEvWxQb3ZvgTXLjuiYnHPZN77rHAv84cf6y5yWtovxZb1fVEDb47v_FR3Ciy-Tjn6ul79WQKPDL8wUEMu1FqmAgoqRKeMRsGvnth33uwZruA5hC11gdzlS35vJz-BXsDb9ca4b7ksSGMFNIUhUOEJQKEIbtsdcJrkVpQ1Y_fB7W1gc5Mf_VfcDRYq626IfZH3MdNqXfx_20lInBF0a4tOAM5EJ69L_I14sa2vi8fQQmaTosZPR8XPKjOKSnhV62xeg5Z-K6JpgfqBDEfnxrCBqawwLYy3MOoz7oncBJemFRuAoON3ZcNaVDD-c5LkvIJl-IApoCUUTCfRwZrrBkIFOK8UBLKERD0VY-kSBfoyJsSnbpqoIjvgZy0]--></g></svg>