<?xml version="1.0" encoding="us-ascii" standalone="no"?><svg xmlns="http://www.w3.org/2000/svg" xmlns:xlink="http://www.w3.org/1999/xlink" contentStyleType="text/css" height="1012px" preserveAspectRatio="none" style="width:603px;height:1012px;background:#FFFFFF;" version="1.1" viewBox="0 0 603 1012" width="603px" zoomAndPan="magnify"><defs/><g><text fill="#000000" font-family="sans-serif" font-size="14" font-weight="bold" lengthAdjust="spacing" textLength="284" x="152.59" y="24.5332">Diagrama de Clases - Transporte P&#250;blico</text><!--class ServicioTransportePublico--><g id="elem_ServicioTransportePublico"><rect codeLine="3" fill="#F1F1F1" height="48" id="ServicioTransportePublico" rx="2.5" ry="2.5" style="stroke:#181818;stroke-width:0.5;" width="198" x="271.18" y="45.6094"/><ellipse cx="286.18" cy="61.6094" fill="#ADD1B2" rx="11" ry="11" style="stroke:#181818;stroke-width:1.0;"/><path d="M288.9456,57.4844 Q289.1019,57.2656 289.2894,57.1563 Q289.4769,57.0469 289.6956,57.0469 Q290.0706,57.0469 290.305,57.3125 Q290.5394,57.5625 290.5394,58.1719 L290.5394,59.625 Q290.5394,60.2344 290.305,60.5 Q290.0706,60.7656 289.6956,60.7656 Q289.3519,60.7656 289.1488,60.5625 Q288.9456,60.375 288.8363,59.8594 Q288.7894,59.5 288.6019,59.3125 Q288.2738,58.9375 287.6644,58.7188 Q287.055,58.5 286.43,58.5 Q285.6644,58.5 285.0238,58.8281 Q284.3988,59.1563 283.8988,59.9063 Q283.4144,60.6563 283.4144,61.6875 L283.4144,62.7813 Q283.4144,64.0156 284.305,64.8438 Q285.1956,65.6563 286.7894,65.6563 Q287.7269,65.6563 288.3831,65.4063 Q288.7738,65.25 289.1956,64.8125 Q289.4613,64.5469 289.6019,64.4688 Q289.7581,64.3906 289.9613,64.3906 Q290.2894,64.3906 290.5394,64.6563 Q290.805,64.9063 290.805,65.25 Q290.805,65.5938 290.4613,66 Q289.9613,66.5781 289.1644,66.9063 Q288.0863,67.3594 286.7894,67.3594 Q285.2738,67.3594 284.0706,66.7344 Q283.0863,66.2344 282.3988,65.1719 Q281.7113,64.0938 281.7113,62.8125 L281.7113,61.6563 Q281.7113,60.3281 282.3206,59.1875 Q282.9456,58.0313 284.0394,57.4219 Q285.1331,56.7969 286.3675,56.7969 Q287.1019,56.7969 287.7425,56.9688 Q288.3988,57.125 288.9456,57.4844 Z " fill="#000000"/><text fill="#000000" font-family="sans-serif" font-size="14" lengthAdjust="spacing" textLength="166" x="300.18" y="67.3379">ServicioTransportePublico</text><line style="stroke:#181818;stroke-width:0.5;" x1="272.18" x2="468.18" y1="77.6094" y2="77.6094"/><line style="stroke:#181818;stroke-width:0.5;" x1="272.18" x2="468.18" y1="85.6094" y2="85.6094"/></g><!--class Incidencia--><g id="elem_Incidencia"><rect codeLine="6" fill="#F1F1F1" height="48" id="Incidencia" rx="2.5" ry="2.5" style="stroke:#181818;stroke-width:0.5;" width="95" x="204.68" y="171.6094"/><ellipse cx="219.68" cy="187.6094" fill="#ADD1B2" rx="11" ry="11" style="stroke:#181818;stroke-width:1.0;"/><path d="M222.4456,183.4844 Q222.6019,183.2656 222.7894,183.1563 Q222.9769,183.0469 223.1956,183.0469 Q223.5706,183.0469 223.805,183.3125 Q224.0394,183.5625 224.0394,184.1719 L224.0394,185.625 Q224.0394,186.2344 223.805,186.5 Q223.5706,186.7656 223.1956,186.7656 Q222.8519,186.7656 222.6488,186.5625 Q222.4456,186.375 222.3363,185.8594 Q222.2894,185.5 222.1019,185.3125 Q221.7738,184.9375 221.1644,184.7188 Q220.555,184.5 219.93,184.5 Q219.1644,184.5 218.5238,184.8281 Q217.8988,185.1563 217.3988,185.9063 Q216.9144,186.6563 216.9144,187.6875 L216.9144,188.7813 Q216.9144,190.0156 217.805,190.8438 Q218.6956,191.6563 220.2894,191.6563 Q221.2269,191.6563 221.8831,191.4063 Q222.2738,191.25 222.6956,190.8125 Q222.9613,190.5469 223.1019,190.4688 Q223.2581,190.3906 223.4613,190.3906 Q223.7894,190.3906 224.0394,190.6563 Q224.305,190.9063 224.305,191.25 Q224.305,191.5938 223.9613,192 Q223.4613,192.5781 222.6644,192.9063 Q221.5863,193.3594 220.2894,193.3594 Q218.7738,193.3594 217.5706,192.7344 Q216.5863,192.2344 215.8988,191.1719 Q215.2113,190.0938 215.2113,188.8125 L215.2113,187.6563 Q215.2113,186.3281 215.8206,185.1875 Q216.4456,184.0313 217.5394,183.4219 Q218.6331,182.7969 219.8675,182.7969 Q220.6019,182.7969 221.2425,182.9688 Q221.8988,183.125 222.4456,183.4844 Z " fill="#000000"/><text fill="#000000" font-family="sans-serif" font-size="14" lengthAdjust="spacing" textLength="63" x="233.68" y="193.3379">Incidencia</text><line style="stroke:#181818;stroke-width:0.5;" x1="205.68" x2="298.68" y1="203.6094" y2="203.6094"/><line style="stroke:#181818;stroke-width:0.5;" x1="205.68" x2="298.68" y1="211.6094" y2="211.6094"/></g><!--class Externa--><g id="elem_Externa"><rect codeLine="7" fill="#F1F1F1" height="48" id="Externa" rx="2.5" ry="2.5" style="stroke:#181818;stroke-width:0.5;" width="80" x="75.18" y="297.6094"/><ellipse cx="90.18" cy="313.6094" fill="#ADD1B2" rx="11" ry="11" style="stroke:#181818;stroke-width:1.0;"/><path d="M92.9456,309.4844 Q93.1019,309.2656 93.2894,309.1563 Q93.4769,309.0469 93.6956,309.0469 Q94.0706,309.0469 94.305,309.3125 Q94.5394,309.5625 94.5394,310.1719 L94.5394,311.625 Q94.5394,312.2344 94.305,312.5 Q94.0706,312.7656 93.6956,312.7656 Q93.3519,312.7656 93.1488,312.5625 Q92.9456,312.375 92.8363,311.8594 Q92.7894,311.5 92.6019,311.3125 Q92.2738,310.9375 91.6644,310.7188 Q91.055,310.5 90.43,310.5 Q89.6644,310.5 89.0238,310.8281 Q88.3988,311.1563 87.8988,311.9063 Q87.4144,312.6563 87.4144,313.6875 L87.4144,314.7813 Q87.4144,316.0156 88.305,316.8438 Q89.1956,317.6563 90.7894,317.6563 Q91.7269,317.6563 92.3831,317.4063 Q92.7738,317.25 93.1956,316.8125 Q93.4613,316.5469 93.6019,316.4688 Q93.7581,316.3906 93.9613,316.3906 Q94.2894,316.3906 94.5394,316.6563 Q94.805,316.9063 94.805,317.25 Q94.805,317.5938 94.4613,318 Q93.9613,318.5781 93.1644,318.9063 Q92.0863,319.3594 90.7894,319.3594 Q89.2738,319.3594 88.0706,318.7344 Q87.0863,318.2344 86.3988,317.1719 Q85.7113,316.0938 85.7113,314.8125 L85.7113,313.6563 Q85.7113,312.3281 86.3206,311.1875 Q86.9456,310.0313 88.0394,309.4219 Q89.1331,308.7969 90.3675,308.7969 Q91.1019,308.7969 91.7425,308.9688 Q92.3988,309.125 92.9456,309.4844 Z " fill="#000000"/><text fill="#000000" font-family="sans-serif" font-size="14" lengthAdjust="spacing" textLength="48" x="104.18" y="319.3379">Externa</text><line style="stroke:#181818;stroke-width:0.5;" x1="76.18" x2="154.18" y1="329.6094" y2="329.6094"/><line style="stroke:#181818;stroke-width:0.5;" x1="76.18" x2="154.18" y1="337.6094" y2="337.6094"/></g><!--class Interna--><g id="elem_Interna"><rect codeLine="8" fill="#F1F1F1" height="48" id="Interna" rx="2.5" ry="2.5" style="stroke:#181818;stroke-width:0.5;" width="76" x="214.18" y="297.6094"/><ellipse cx="229.18" cy="313.6094" fill="#ADD1B2" rx="11" ry="11" style="stroke:#181818;stroke-width:1.0;"/><path d="M231.9456,309.4844 Q232.1019,309.2656 232.2894,309.1563 Q232.4769,309.0469 232.6956,309.0469 Q233.0706,309.0469 233.305,309.3125 Q233.5394,309.5625 233.5394,310.1719 L233.5394,311.625 Q233.5394,312.2344 233.305,312.5 Q233.0706,312.7656 232.6956,312.7656 Q232.3519,312.7656 232.1488,312.5625 Q231.9456,312.375 231.8363,311.8594 Q231.7894,311.5 231.6019,311.3125 Q231.2738,310.9375 230.6644,310.7188 Q230.055,310.5 229.43,310.5 Q228.6644,310.5 228.0238,310.8281 Q227.3988,311.1563 226.8988,311.9063 Q226.4144,312.6563 226.4144,313.6875 L226.4144,314.7813 Q226.4144,316.0156 227.305,316.8438 Q228.1956,317.6563 229.7894,317.6563 Q230.7269,317.6563 231.3831,317.4063 Q231.7738,317.25 232.1956,316.8125 Q232.4613,316.5469 232.6019,316.4688 Q232.7581,316.3906 232.9613,316.3906 Q233.2894,316.3906 233.5394,316.6563 Q233.805,316.9063 233.805,317.25 Q233.805,317.5938 233.4613,318 Q232.9613,318.5781 232.1644,318.9063 Q231.0863,319.3594 229.7894,319.3594 Q228.2738,319.3594 227.0706,318.7344 Q226.0863,318.2344 225.3988,317.1719 Q224.7113,316.0938 224.7113,314.8125 L224.7113,313.6563 Q224.7113,312.3281 225.3206,311.1875 Q225.9456,310.0313 227.0394,309.4219 Q228.1331,308.7969 229.3675,308.7969 Q230.1019,308.7969 230.7425,308.9688 Q231.3988,309.125 231.9456,309.4844 Z " fill="#000000"/><text fill="#000000" font-family="sans-serif" font-size="14" lengthAdjust="spacing" textLength="44" x="243.18" y="319.3379">Interna</text><line style="stroke:#181818;stroke-width:0.5;" x1="215.18" x2="289.18" y1="329.6094" y2="329.6094"/><line style="stroke:#181818;stroke-width:0.5;" x1="215.18" x2="289.18" y1="337.6094" y2="337.6094"/></g><!--class Horario--><g id="elem_Horario"><rect codeLine="9" fill="#F1F1F1" height="48" id="Horario" rx="2.5" ry="2.5" style="stroke:#181818;stroke-width:0.5;" width="78" x="160.18" y="579.6094"/><ellipse cx="175.18" cy="595.6094" fill="#ADD1B2" rx="11" ry="11" style="stroke:#181818;stroke-width:1.0;"/><path d="M177.9456,591.4844 Q178.1019,591.2656 178.2894,591.1563 Q178.4769,591.0469 178.6956,591.0469 Q179.0706,591.0469 179.305,591.3125 Q179.5394,591.5625 179.5394,592.1719 L179.5394,593.625 Q179.5394,594.2344 179.305,594.5 Q179.0706,594.7656 178.6956,594.7656 Q178.3519,594.7656 178.1488,594.5625 Q177.9456,594.375 177.8363,593.8594 Q177.7894,593.5 177.6019,593.3125 Q177.2738,592.9375 176.6644,592.7188 Q176.055,592.5 175.43,592.5 Q174.6644,592.5 174.0238,592.8281 Q173.3988,593.1563 172.8988,593.9063 Q172.4144,594.6563 172.4144,595.6875 L172.4144,596.7813 Q172.4144,598.0156 173.305,598.8438 Q174.1956,599.6563 175.7894,599.6563 Q176.7269,599.6563 177.3831,599.4063 Q177.7738,599.25 178.1956,598.8125 Q178.4613,598.5469 178.6019,598.4688 Q178.7581,598.3906 178.9613,598.3906 Q179.2894,598.3906 179.5394,598.6563 Q179.805,598.9063 179.805,599.25 Q179.805,599.5938 179.4613,600 Q178.9613,600.5781 178.1644,600.9063 Q177.0863,601.3594 175.7894,601.3594 Q174.2738,601.3594 173.0706,600.7344 Q172.0863,600.2344 171.3988,599.1719 Q170.7113,598.0938 170.7113,596.8125 L170.7113,595.6563 Q170.7113,594.3281 171.3206,593.1875 Q171.9456,592.0313 173.0394,591.4219 Q174.1331,590.7969 175.3675,590.7969 Q176.1019,590.7969 176.7425,590.9688 Q177.3988,591.125 177.9456,591.4844 Z " fill="#000000"/><text fill="#000000" font-family="sans-serif" font-size="14" lengthAdjust="spacing" textLength="46" x="189.18" y="601.3379">Horario</text><line style="stroke:#181818;stroke-width:0.5;" x1="161.18" x2="237.18" y1="611.6094" y2="611.6094"/><line style="stroke:#181818;stroke-width:0.5;" x1="161.18" x2="237.18" y1="619.6094" y2="619.6094"/></g><!--class Ruta--><g id="elem_Ruta"><rect codeLine="10" fill="#F1F1F1" height="48" id="Ruta" rx="2.5" ry="2.5" style="stroke:#181818;stroke-width:0.5;" width="62" x="103.18" y="453.6094"/><ellipse cx="118.18" cy="469.6094" fill="#ADD1B2" rx="11" ry="11" style="stroke:#181818;stroke-width:1.0;"/><path d="M120.9456,465.4844 Q121.1019,465.2656 121.2894,465.1563 Q121.4769,465.0469 121.6956,465.0469 Q122.0706,465.0469 122.305,465.3125 Q122.5394,465.5625 122.5394,466.1719 L122.5394,467.625 Q122.5394,468.2344 122.305,468.5 Q122.0706,468.7656 121.6956,468.7656 Q121.3519,468.7656 121.1488,468.5625 Q120.9456,468.375 120.8363,467.8594 Q120.7894,467.5 120.6019,467.3125 Q120.2738,466.9375 119.6644,466.7188 Q119.055,466.5 118.43,466.5 Q117.6644,466.5 117.0238,466.8281 Q116.3988,467.1563 115.8988,467.9063 Q115.4144,468.6563 115.4144,469.6875 L115.4144,470.7813 Q115.4144,472.0156 116.305,472.8438 Q117.1956,473.6563 118.7894,473.6563 Q119.7269,473.6563 120.3831,473.4063 Q120.7738,473.25 121.1956,472.8125 Q121.4613,472.5469 121.6019,472.4688 Q121.7581,472.3906 121.9613,472.3906 Q122.2894,472.3906 122.5394,472.6563 Q122.805,472.9063 122.805,473.25 Q122.805,473.5938 122.4613,474 Q121.9613,474.5781 121.1644,474.9063 Q120.0863,475.3594 118.7894,475.3594 Q117.2738,475.3594 116.0706,474.7344 Q115.0863,474.2344 114.3988,473.1719 Q113.7113,472.0938 113.7113,470.8125 L113.7113,469.6563 Q113.7113,468.3281 114.3206,467.1875 Q114.9456,466.0313 116.0394,465.4219 Q117.1331,464.7969 118.3675,464.7969 Q119.1019,464.7969 119.7425,464.9688 Q120.3988,465.125 120.9456,465.4844 Z " fill="#000000"/><text fill="#000000" font-family="sans-serif" font-size="14" lengthAdjust="spacing" textLength="30" x="132.18" y="475.3379">Ruta</text><line style="stroke:#181818;stroke-width:0.5;" x1="104.18" x2="164.18" y1="485.6094" y2="485.6094"/><line style="stroke:#181818;stroke-width:0.5;" x1="104.18" x2="164.18" y1="493.6094" y2="493.6094"/></g><!--class Parada--><g id="elem_Parada"><rect codeLine="11" fill="#F1F1F1" height="48" id="Parada" rx="2.5" ry="2.5" style="stroke:#181818;stroke-width:0.5;" width="78" x="32.18" y="579.6094"/><ellipse cx="47.18" cy="595.6094" fill="#ADD1B2" rx="11" ry="11" style="stroke:#181818;stroke-width:1.0;"/><path d="M49.9456,591.4844 Q50.1019,591.2656 50.2894,591.1563 Q50.4769,591.0469 50.6956,591.0469 Q51.0706,591.0469 51.305,591.3125 Q51.5394,591.5625 51.5394,592.1719 L51.5394,593.625 Q51.5394,594.2344 51.305,594.5 Q51.0706,594.7656 50.6956,594.7656 Q50.3519,594.7656 50.1488,594.5625 Q49.9456,594.375 49.8363,593.8594 Q49.7894,593.5 49.6019,593.3125 Q49.2738,592.9375 48.6644,592.7188 Q48.055,592.5 47.43,592.5 Q46.6644,592.5 46.0238,592.8281 Q45.3988,593.1563 44.8988,593.9063 Q44.4144,594.6563 44.4144,595.6875 L44.4144,596.7813 Q44.4144,598.0156 45.305,598.8438 Q46.1956,599.6563 47.7894,599.6563 Q48.7269,599.6563 49.3831,599.4063 Q49.7738,599.25 50.1956,598.8125 Q50.4613,598.5469 50.6019,598.4688 Q50.7581,598.3906 50.9613,598.3906 Q51.2894,598.3906 51.5394,598.6563 Q51.805,598.9063 51.805,599.25 Q51.805,599.5938 51.4613,600 Q50.9613,600.5781 50.1644,600.9063 Q49.0863,601.3594 47.7894,601.3594 Q46.2738,601.3594 45.0706,600.7344 Q44.0863,600.2344 43.3988,599.1719 Q42.7113,598.0938 42.7113,596.8125 L42.7113,595.6563 Q42.7113,594.3281 43.3206,593.1875 Q43.9456,592.0313 45.0394,591.4219 Q46.1331,590.7969 47.3675,590.7969 Q48.1019,590.7969 48.7425,590.9688 Q49.3988,591.125 49.9456,591.4844 Z " fill="#000000"/><text fill="#000000" font-family="sans-serif" font-size="14" lengthAdjust="spacing" textLength="46" x="61.18" y="601.3379">Parada</text><line style="stroke:#181818;stroke-width:0.5;" x1="33.18" x2="109.18" y1="611.6094" y2="611.6094"/><line style="stroke:#181818;stroke-width:0.5;" x1="33.18" x2="109.18" y1="619.6094" y2="619.6094"/></g><!--class Flota--><g id="elem_Flota"><rect codeLine="12" fill="#F1F1F1" height="48" id="Flota" rx="2.5" ry="2.5" style="stroke:#181818;stroke-width:0.5;" width="64" x="324.18" y="453.6094"/><ellipse cx="339.18" cy="469.6094" fill="#ADD1B2" rx="11" ry="11" style="stroke:#181818;stroke-width:1.0;"/><path d="M341.9456,465.4844 Q342.1019,465.2656 342.2894,465.1563 Q342.4769,465.0469 342.6956,465.0469 Q343.0706,465.0469 343.305,465.3125 Q343.5394,465.5625 343.5394,466.1719 L343.5394,467.625 Q343.5394,468.2344 343.305,468.5 Q343.0706,468.7656 342.6956,468.7656 Q342.3519,468.7656 342.1488,468.5625 Q341.9456,468.375 341.8363,467.8594 Q341.7894,467.5 341.6019,467.3125 Q341.2738,466.9375 340.6644,466.7188 Q340.055,466.5 339.43,466.5 Q338.6644,466.5 338.0238,466.8281 Q337.3988,467.1563 336.8988,467.9063 Q336.4144,468.6563 336.4144,469.6875 L336.4144,470.7813 Q336.4144,472.0156 337.305,472.8438 Q338.1956,473.6563 339.7894,473.6563 Q340.7269,473.6563 341.3831,473.4063 Q341.7738,473.25 342.1956,472.8125 Q342.4613,472.5469 342.6019,472.4688 Q342.7581,472.3906 342.9613,472.3906 Q343.2894,472.3906 343.5394,472.6563 Q343.805,472.9063 343.805,473.25 Q343.805,473.5938 343.4613,474 Q342.9613,474.5781 342.1644,474.9063 Q341.0863,475.3594 339.7894,475.3594 Q338.2738,475.3594 337.0706,474.7344 Q336.0863,474.2344 335.3988,473.1719 Q334.7113,472.0938 334.7113,470.8125 L334.7113,469.6563 Q334.7113,468.3281 335.3206,467.1875 Q335.9456,466.0313 337.0394,465.4219 Q338.1331,464.7969 339.3675,464.7969 Q340.1019,464.7969 340.7425,464.9688 Q341.3988,465.125 341.9456,465.4844 Z " fill="#000000"/><text fill="#000000" font-family="sans-serif" font-size="14" lengthAdjust="spacing" textLength="32" x="353.18" y="475.3379">Flota</text><line style="stroke:#181818;stroke-width:0.5;" x1="325.18" x2="387.18" y1="485.6094" y2="485.6094"/><line style="stroke:#181818;stroke-width:0.5;" x1="325.18" x2="387.18" y1="493.6094" y2="493.6094"/></g><!--class Vehiculo--><g id="elem_Vehiculo"><rect codeLine="13" fill="#F1F1F1" height="48" id="Vehiculo" rx="2.5" ry="2.5" style="stroke:#181818;stroke-width:0.5;" width="86" x="312.18" y="579.6094"/><ellipse cx="327.18" cy="595.6094" fill="#ADD1B2" rx="11" ry="11" style="stroke:#181818;stroke-width:1.0;"/><path d="M329.9456,591.4844 Q330.1019,591.2656 330.2894,591.1563 Q330.4769,591.0469 330.6956,591.0469 Q331.0706,591.0469 331.305,591.3125 Q331.5394,591.5625 331.5394,592.1719 L331.5394,593.625 Q331.5394,594.2344 331.305,594.5 Q331.0706,594.7656 330.6956,594.7656 Q330.3519,594.7656 330.1488,594.5625 Q329.9456,594.375 329.8363,593.8594 Q329.7894,593.5 329.6019,593.3125 Q329.2738,592.9375 328.6644,592.7188 Q328.055,592.5 327.43,592.5 Q326.6644,592.5 326.0238,592.8281 Q325.3988,593.1563 324.8988,593.9063 Q324.4144,594.6563 324.4144,595.6875 L324.4144,596.7813 Q324.4144,598.0156 325.305,598.8438 Q326.1956,599.6563 327.7894,599.6563 Q328.7269,599.6563 329.3831,599.4063 Q329.7738,599.25 330.1956,598.8125 Q330.4613,598.5469 330.6019,598.4688 Q330.7581,598.3906 330.9613,598.3906 Q331.2894,598.3906 331.5394,598.6563 Q331.805,598.9063 331.805,599.25 Q331.805,599.5938 331.4613,600 Q330.9613,600.5781 330.1644,600.9063 Q329.0863,601.3594 327.7894,601.3594 Q326.2738,601.3594 325.0706,600.7344 Q324.0863,600.2344 323.3988,599.1719 Q322.7113,598.0938 322.7113,596.8125 L322.7113,595.6563 Q322.7113,594.3281 323.3206,593.1875 Q323.9456,592.0313 325.0394,591.4219 Q326.1331,590.7969 327.3675,590.7969 Q328.1019,590.7969 328.7425,590.9688 Q329.3988,591.125 329.9456,591.4844 Z " fill="#000000"/><text fill="#000000" font-family="sans-serif" font-size="14" lengthAdjust="spacing" textLength="54" x="341.18" y="601.3379">Vehiculo</text><line style="stroke:#181818;stroke-width:0.5;" x1="313.18" x2="397.18" y1="611.6094" y2="611.6094"/><line style="stroke:#181818;stroke-width:0.5;" x1="313.18" x2="397.18" y1="619.6094" y2="619.6094"/></g><!--class Usuario--><g id="elem_Usuario"><rect codeLine="14" fill="#F1F1F1" height="48" id="Usuario" rx="2.5" ry="2.5" style="stroke:#181818;stroke-width:0.5;" width="80" x="314.18" y="705.6094"/><ellipse cx="329.18" cy="721.6094" fill="#ADD1B2" rx="11" ry="11" style="stroke:#181818;stroke-width:1.0;"/><path d="M331.9456,717.4844 Q332.1019,717.2656 332.2894,717.1563 Q332.4769,717.0469 332.6956,717.0469 Q333.0706,717.0469 333.305,717.3125 Q333.5394,717.5625 333.5394,718.1719 L333.5394,719.625 Q333.5394,720.2344 333.305,720.5 Q333.0706,720.7656 332.6956,720.7656 Q332.3519,720.7656 332.1488,720.5625 Q331.9456,720.375 331.8363,719.8594 Q331.7894,719.5 331.6019,719.3125 Q331.2738,718.9375 330.6644,718.7188 Q330.055,718.5 329.43,718.5 Q328.6644,718.5 328.0238,718.8281 Q327.3988,719.1563 326.8988,719.9063 Q326.4144,720.6563 326.4144,721.6875 L326.4144,722.7813 Q326.4144,724.0156 327.305,724.8438 Q328.1956,725.6563 329.7894,725.6563 Q330.7269,725.6563 331.3831,725.4063 Q331.7738,725.25 332.1956,724.8125 Q332.4613,724.5469 332.6019,724.4688 Q332.7581,724.3906 332.9613,724.3906 Q333.2894,724.3906 333.5394,724.6563 Q333.805,724.9063 333.805,725.25 Q333.805,725.5938 333.4613,726 Q332.9613,726.5781 332.1644,726.9063 Q331.0863,727.3594 329.7894,727.3594 Q328.2738,727.3594 327.0706,726.7344 Q326.0863,726.2344 325.3988,725.1719 Q324.7113,724.0938 324.7113,722.8125 L324.7113,721.6563 Q324.7113,720.3281 325.3206,719.1875 Q325.9456,718.0313 327.0394,717.4219 Q328.1331,716.7969 329.3675,716.7969 Q330.1019,716.7969 330.7425,716.9688 Q331.3988,717.125 331.9456,717.4844 Z " fill="#000000"/><text fill="#000000" font-family="sans-serif" font-size="14" lengthAdjust="spacing" textLength="48" x="343.18" y="727.3379">Usuario</text><line style="stroke:#181818;stroke-width:0.5;" x1="315.18" x2="393.18" y1="737.6094" y2="737.6094"/><line style="stroke:#181818;stroke-width:0.5;" x1="315.18" x2="393.18" y1="745.6094" y2="745.6094"/></g><!--class Conductor--><g id="elem_Conductor"><rect codeLine="15" fill="#F1F1F1" height="48" id="Conductor" rx="2.5" ry="2.5" style="stroke:#181818;stroke-width:0.5;" width="98" x="315.18" y="831.6094"/><ellipse cx="330.18" cy="847.6094" fill="#ADD1B2" rx="11" ry="11" style="stroke:#181818;stroke-width:1.0;"/><path d="M332.9456,843.4844 Q333.1019,843.2656 333.2894,843.1563 Q333.4769,843.0469 333.6956,843.0469 Q334.0706,843.0469 334.305,843.3125 Q334.5394,843.5625 334.5394,844.1719 L334.5394,845.625 Q334.5394,846.2344 334.305,846.5 Q334.0706,846.7656 333.6956,846.7656 Q333.3519,846.7656 333.1488,846.5625 Q332.9456,846.375 332.8363,845.8594 Q332.7894,845.5 332.6019,845.3125 Q332.2738,844.9375 331.6644,844.7188 Q331.055,844.5 330.43,844.5 Q329.6644,844.5 329.0238,844.8281 Q328.3988,845.1563 327.8988,845.9063 Q327.4144,846.6563 327.4144,847.6875 L327.4144,848.7813 Q327.4144,850.0156 328.305,850.8438 Q329.1956,851.6563 330.7894,851.6563 Q331.7269,851.6563 332.3831,851.4063 Q332.7738,851.25 333.1956,850.8125 Q333.4613,850.5469 333.6019,850.4688 Q333.7581,850.3906 333.9613,850.3906 Q334.2894,850.3906 334.5394,850.6563 Q334.805,850.9063 334.805,851.25 Q334.805,851.5938 334.4613,852 Q333.9613,852.5781 333.1644,852.9063 Q332.0863,853.3594 330.7894,853.3594 Q329.2738,853.3594 328.0706,852.7344 Q327.0863,852.2344 326.3988,851.1719 Q325.7113,850.0938 325.7113,848.8125 L325.7113,847.6563 Q325.7113,846.3281 326.3206,845.1875 Q326.9456,844.0313 328.0394,843.4219 Q329.1331,842.7969 330.3675,842.7969 Q331.1019,842.7969 331.7425,842.9688 Q332.3988,843.125 332.9456,843.4844 Z " fill="#000000"/><text fill="#000000" font-family="sans-serif" font-size="14" lengthAdjust="spacing" textLength="66" x="344.18" y="853.3379">Conductor</text><line style="stroke:#181818;stroke-width:0.5;" x1="316.18" x2="412.18" y1="863.6094" y2="863.6094"/><line style="stroke:#181818;stroke-width:0.5;" x1="316.18" x2="412.18" y1="871.6094" y2="871.6094"/></g><!--class Pasajero--><g id="elem_Pasajero"><rect codeLine="16" fill="#F1F1F1" height="48" id="Pasajero" rx="2.5" ry="2.5" style="stroke:#181818;stroke-width:0.5;" width="88" x="192.18" y="831.6094"/><ellipse cx="207.18" cy="847.6094" fill="#ADD1B2" rx="11" ry="11" style="stroke:#181818;stroke-width:1.0;"/><path d="M209.9456,843.4844 Q210.1019,843.2656 210.2894,843.1563 Q210.4769,843.0469 210.6956,843.0469 Q211.0706,843.0469 211.305,843.3125 Q211.5394,843.5625 211.5394,844.1719 L211.5394,845.625 Q211.5394,846.2344 211.305,846.5 Q211.0706,846.7656 210.6956,846.7656 Q210.3519,846.7656 210.1488,846.5625 Q209.9456,846.375 209.8363,845.8594 Q209.7894,845.5 209.6019,845.3125 Q209.2738,844.9375 208.6644,844.7188 Q208.055,844.5 207.43,844.5 Q206.6644,844.5 206.0238,844.8281 Q205.3988,845.1563 204.8988,845.9063 Q204.4144,846.6563 204.4144,847.6875 L204.4144,848.7813 Q204.4144,850.0156 205.305,850.8438 Q206.1956,851.6563 207.7894,851.6563 Q208.7269,851.6563 209.3831,851.4063 Q209.7738,851.25 210.1956,850.8125 Q210.4613,850.5469 210.6019,850.4688 Q210.7581,850.3906 210.9613,850.3906 Q211.2894,850.3906 211.5394,850.6563 Q211.805,850.9063 211.805,851.25 Q211.805,851.5938 211.4613,852 Q210.9613,852.5781 210.1644,852.9063 Q209.0863,853.3594 207.7894,853.3594 Q206.2738,853.3594 205.0706,852.7344 Q204.0863,852.2344 203.3988,851.1719 Q202.7113,850.0938 202.7113,848.8125 L202.7113,847.6563 Q202.7113,846.3281 203.3206,845.1875 Q203.9456,844.0313 205.0394,843.4219 Q206.1331,842.7969 207.3675,842.7969 Q208.1019,842.7969 208.7425,842.9688 Q209.3988,843.125 209.9456,843.4844 Z " fill="#000000"/><text fill="#000000" font-family="sans-serif" font-size="14" lengthAdjust="spacing" textLength="56" x="221.18" y="853.3379">Pasajero</text><line style="stroke:#181818;stroke-width:0.5;" x1="193.18" x2="279.18" y1="863.6094" y2="863.6094"/><line style="stroke:#181818;stroke-width:0.5;" x1="193.18" x2="279.18" y1="871.6094" y2="871.6094"/></g><!--class Pago--><g id="elem_Pago"><rect codeLine="17" fill="#F1F1F1" height="48" id="Pago" rx="2.5" ry="2.5" style="stroke:#181818;stroke-width:0.5;" width="65" x="425.68" y="171.6094"/><ellipse cx="440.68" cy="187.6094" fill="#ADD1B2" rx="11" ry="11" style="stroke:#181818;stroke-width:1.0;"/><path d="M443.4456,183.4844 Q443.6019,183.2656 443.7894,183.1563 Q443.9769,183.0469 444.1956,183.0469 Q444.5706,183.0469 444.805,183.3125 Q445.0394,183.5625 445.0394,184.1719 L445.0394,185.625 Q445.0394,186.2344 444.805,186.5 Q444.5706,186.7656 444.1956,186.7656 Q443.8519,186.7656 443.6488,186.5625 Q443.4456,186.375 443.3363,185.8594 Q443.2894,185.5 443.1019,185.3125 Q442.7738,184.9375 442.1644,184.7188 Q441.555,184.5 440.93,184.5 Q440.1644,184.5 439.5238,184.8281 Q438.8988,185.1563 438.3988,185.9063 Q437.9144,186.6563 437.9144,187.6875 L437.9144,188.7813 Q437.9144,190.0156 438.805,190.8438 Q439.6956,191.6563 441.2894,191.6563 Q442.2269,191.6563 442.8831,191.4063 Q443.2738,191.25 443.6956,190.8125 Q443.9613,190.5469 444.1019,190.4688 Q444.2581,190.3906 444.4613,190.3906 Q444.7894,190.3906 445.0394,190.6563 Q445.305,190.9063 445.305,191.25 Q445.305,191.5938 444.9613,192 Q444.4613,192.5781 443.6644,192.9063 Q442.5863,193.3594 441.2894,193.3594 Q439.7738,193.3594 438.5706,192.7344 Q437.5863,192.2344 436.8988,191.1719 Q436.2113,190.0938 436.2113,188.8125 L436.2113,187.6563 Q436.2113,186.3281 436.8206,185.1875 Q437.4456,184.0313 438.5394,183.4219 Q439.6331,182.7969 440.8675,182.7969 Q441.6019,182.7969 442.2425,182.9688 Q442.8988,183.125 443.4456,183.4844 Z " fill="#000000"/><text fill="#000000" font-family="sans-serif" font-size="14" lengthAdjust="spacing" textLength="33" x="454.68" y="193.3379">Pago</text><line style="stroke:#181818;stroke-width:0.5;" x1="426.68" x2="489.68" y1="203.6094" y2="203.6094"/><line style="stroke:#181818;stroke-width:0.5;" x1="426.68" x2="489.68" y1="211.6094" y2="211.6094"/></g><!--class Abono--><g id="elem_Abono"><rect codeLine="18" fill="#F1F1F1" height="48" id="Abono" rx="2.5" ry="2.5" style="stroke:#181818;stroke-width:0.5;" width="73" x="429.68" y="375.6094"/><ellipse cx="444.68" cy="391.6094" fill="#ADD1B2" rx="11" ry="11" style="stroke:#181818;stroke-width:1.0;"/><path d="M447.4456,387.4844 Q447.6019,387.2656 447.7894,387.1563 Q447.9769,387.0469 448.1956,387.0469 Q448.5706,387.0469 448.805,387.3125 Q449.0394,387.5625 449.0394,388.1719 L449.0394,389.625 Q449.0394,390.2344 448.805,390.5 Q448.5706,390.7656 448.1956,390.7656 Q447.8519,390.7656 447.6488,390.5625 Q447.4456,390.375 447.3363,389.8594 Q447.2894,389.5 447.1019,389.3125 Q446.7738,388.9375 446.1644,388.7188 Q445.555,388.5 444.93,388.5 Q444.1644,388.5 443.5238,388.8281 Q442.8988,389.1563 442.3988,389.9063 Q441.9144,390.6563 441.9144,391.6875 L441.9144,392.7813 Q441.9144,394.0156 442.805,394.8438 Q443.6956,395.6563 445.2894,395.6563 Q446.2269,395.6563 446.8831,395.4063 Q447.2738,395.25 447.6956,394.8125 Q447.9613,394.5469 448.1019,394.4688 Q448.2581,394.3906 448.4613,394.3906 Q448.7894,394.3906 449.0394,394.6563 Q449.305,394.9063 449.305,395.25 Q449.305,395.5938 448.9613,396 Q448.4613,396.5781 447.6644,396.9063 Q446.5863,397.3594 445.2894,397.3594 Q443.7738,397.3594 442.5706,396.7344 Q441.5863,396.2344 440.8988,395.1719 Q440.2113,394.0938 440.2113,392.8125 L440.2113,391.6563 Q440.2113,390.3281 440.8206,389.1875 Q441.4456,388.0313 442.5394,387.4219 Q443.6331,386.7969 444.8675,386.7969 Q445.6019,386.7969 446.2425,386.9688 Q446.8988,387.125 447.4456,387.4844 Z " fill="#000000"/><text fill="#000000" font-family="sans-serif" font-size="14" lengthAdjust="spacing" textLength="41" x="458.68" y="397.3379">Abono</text><line style="stroke:#181818;stroke-width:0.5;" x1="430.68" x2="501.68" y1="407.6094" y2="407.6094"/><line style="stroke:#181818;stroke-width:0.5;" x1="430.68" x2="501.68" y1="415.6094" y2="415.6094"/></g><!--class Tarifa--><g id="elem_Tarifa"><rect codeLine="19" fill="#F1F1F1" height="48" id="Tarifa" rx="2.5" ry="2.5" style="stroke:#181818;stroke-width:0.5;" width="69" x="316.68" y="957.6094"/><ellipse cx="331.68" cy="973.6094" fill="#ADD1B2" rx="11" ry="11" style="stroke:#181818;stroke-width:1.0;"/><path d="M334.4456,969.4844 Q334.6019,969.2656 334.7894,969.1563 Q334.9769,969.0469 335.1956,969.0469 Q335.5706,969.0469 335.805,969.3125 Q336.0394,969.5625 336.0394,970.1719 L336.0394,971.625 Q336.0394,972.2344 335.805,972.5 Q335.5706,972.7656 335.1956,972.7656 Q334.8519,972.7656 334.6488,972.5625 Q334.4456,972.375 334.3363,971.8594 Q334.2894,971.5 334.1019,971.3125 Q333.7738,970.9375 333.1644,970.7188 Q332.555,970.5 331.93,970.5 Q331.1644,970.5 330.5238,970.8281 Q329.8988,971.1563 329.3988,971.9063 Q328.9144,972.6563 328.9144,973.6875 L328.9144,974.7813 Q328.9144,976.0156 329.805,976.8438 Q330.6956,977.6563 332.2894,977.6563 Q333.2269,977.6563 333.8831,977.4063 Q334.2738,977.25 334.6956,976.8125 Q334.9613,976.5469 335.1019,976.4688 Q335.2581,976.3906 335.4613,976.3906 Q335.7894,976.3906 336.0394,976.6563 Q336.305,976.9063 336.305,977.25 Q336.305,977.5938 335.9613,978 Q335.4613,978.5781 334.6644,978.9063 Q333.5863,979.3594 332.2894,979.3594 Q330.7738,979.3594 329.5706,978.7344 Q328.5863,978.2344 327.8988,977.1719 Q327.2113,976.0938 327.2113,974.8125 L327.2113,973.6563 Q327.2113,972.3281 327.8206,971.1875 Q328.4456,970.0313 329.5394,969.4219 Q330.6331,968.7969 331.8675,968.7969 Q332.6019,968.7969 333.2425,968.9688 Q333.8988,969.125 334.4456,969.4844 Z " fill="#000000"/><text fill="#000000" font-family="sans-serif" font-size="14" lengthAdjust="spacing" textLength="37" x="345.68" y="979.3379">Tarifa</text><line style="stroke:#181818;stroke-width:0.5;" x1="317.68" x2="384.68" y1="989.6094" y2="989.6094"/><line style="stroke:#181818;stroke-width:0.5;" x1="317.68" x2="384.68" y1="997.6094" y2="997.6094"/></g><!--link ServicioTransportePublico to Incidencia--><g id="link_ServicioTransportePublico_Incidencia"><path codeLine="21" d="M334.26,93.7394 C322.37,102.3194 309.53,112.6494 299.18,123.6094 C285.57,138.0094 276.3627,151.6022 267.7927,166.2322 " fill="none" id="ServicioTransportePublico-to-Incidencia" style="stroke:#181818;stroke-width:1.0;"/><polygon fill="#181818" points="264.76,171.4094,272.7605,165.6654,267.2872,167.0951,265.8576,161.6219,264.76,171.4094" style="stroke:#181818;stroke-width:1.0;"/><text fill="#000000" font-family="sans-serif" font-size="13" lengthAdjust="spacing" textLength="43" x="300.18" y="138.1045">registra</text></g><!--link ServicioTransportePublico to Flota--><g id="link_ServicioTransportePublico_Flota"><path codeLine="22" d="M369.38,93.8994 C366.91,165.5094 359.6463,375.9329 357.1863,447.4229 " fill="none" id="ServicioTransportePublico-to-Flota" style="stroke:#181818;stroke-width:1.0;"/><polygon fill="#181818" points="356.98,453.4194,361.2871,444.5623,357.152,448.4223,353.2919,444.2871,356.98,453.4194" style="stroke:#181818;stroke-width:1.0;"/><text fill="#000000" font-family="sans-serif" font-size="13" lengthAdjust="spacing" textLength="49" x="364.18" y="264.1045">gestiona</text></g><!--link ServicioTransportePublico to Pago--><g id="link_ServicioTransportePublico_Pago"><path codeLine="23" d="M386.53,93.6394 C402.23,115.7794 422.3784,144.1557 438.1484,166.3857 " fill="none" id="ServicioTransportePublico-to-Pago" style="stroke:#181818;stroke-width:1.0;"/><polygon fill="#181818" points="441.62,171.2794,439.6751,161.6245,438.727,167.2013,433.1502,166.2532,441.62,171.2794" style="stroke:#181818;stroke-width:1.0;"/><text fill="#000000" font-family="sans-serif" font-size="13" lengthAdjust="spacing" textLength="46" x="420.18" y="138.1045">procesa</text></g><!--link Incidencia to Externa--><g id="link_Incidencia_Externa"><path codeLine="25" d="M226.73,219.6394 C202.28,241.7794 165.52,275.0494 140.96,297.2794 " fill="none" id="Incidencia-Externa" style="stroke:#181818;stroke-width:1.0;"/><text fill="#000000" font-family="sans-serif" font-size="13" lengthAdjust="spacing" textLength="21" x="193.18" y="264.1045">tipo</text></g><!--link Incidencia to Interna--><g id="link_Incidencia_Interna"><path codeLine="26" d="M252.18,219.6394 C252.18,241.7794 252.18,275.0494 252.18,297.2794 " fill="none" id="Incidencia-Interna" style="stroke:#181818;stroke-width:1.0;"/><text fill="#000000" font-family="sans-serif" font-size="13" lengthAdjust="spacing" textLength="21" x="253.18" y="264.1045">tipo</text></g><!--link Interna to Ruta--><g id="link_Interna_Ruta"><path codeLine="28" d="M219.94,345.8594 C209.35,354.4494 198.04,364.7594 189.18,375.6094 C169.47,399.7294 155.802,426.4788 146.222,447.9788 " fill="none" id="Interna-to-Ruta" style="stroke:#181818;stroke-width:1.0;"/><polygon fill="#181818" points="143.78,453.4594,151.0968,446.8666,145.815,448.8922,143.7893,443.6105,143.78,453.4594" style="stroke:#181818;stroke-width:1.0;"/><text fill="#000000" font-family="sans-serif" font-size="13" lengthAdjust="spacing" textLength="35" x="190.18" y="405.1045">afecta</text></g><!--link Interna to Horario--><g id="link_Interna_Horario"><path codeLine="29" d="M247.75,345.9994 C237.75,398.8394 214.6256,521.004 204.6756,573.584 " fill="none" id="Interna-to-Horario" style="stroke:#181818;stroke-width:1.0;"/><polygon fill="#181818" points="203.56,579.4794,209.1637,571.3801,204.4897,574.5666,201.3032,569.8926,203.56,579.4794" style="stroke:#181818;stroke-width:1.0;"/><text fill="#000000" font-family="sans-serif" font-size="13" lengthAdjust="spacing" textLength="35" x="228.18" y="483.1045">afecta</text></g><!--link Interna to Flota--><g id="link_Interna_Flota"><path codeLine="30" d="M262.68,345.6294 C272.78,366.7394 289.14,398.4694 307.18,423.6094 C314.63,433.9894 319.7785,440.1779 328.2685,449.0779 " fill="none" id="Interna-to-Flota" style="stroke:#181818;stroke-width:1.0;"/><polygon fill="#181818" points="332.41,453.4194,329.0921,444.1462,328.9588,449.8015,323.3035,449.6682,332.41,453.4194" style="stroke:#181818;stroke-width:1.0;"/><text fill="#000000" font-family="sans-serif" font-size="13" lengthAdjust="spacing" textLength="35" x="308.18" y="405.1045">afecta</text></g><!--link Externa to Ruta--><g id="link_Externa_Ruta"><path codeLine="31" d="M111.57,345.7194 C109.03,366.3494 106.93,397.2894 112.18,423.6094 C114.21,433.7694 115.7787,438.9385 119.8187,448.0085 " fill="none" id="Externa-to-Ruta" style="stroke:#181818;stroke-width:1.0;"/><polygon fill="#181818" points="122.26,453.4894,122.2519,443.6405,120.2256,448.922,114.9441,446.8956,122.26,453.4894" style="stroke:#181818;stroke-width:1.0;"/><text fill="#000000" font-family="sans-serif" font-size="13" lengthAdjust="spacing" textLength="35" x="113.18" y="405.1045">afecta</text></g><!--link Externa to Horario--><g id="link_Externa_Horario"><path codeLine="32" d="M97.37,345.7294 C65.38,390.2594 6,488.8694 56.18,549.6094 C63.12,557.9994 114.4692,575.6492 154.3792,588.5092 " fill="none" id="Externa-to-Horario" style="stroke:#181818;stroke-width:1.0;"/><polygon fill="#181818" points="160.09,590.3494,152.7505,583.7819,155.331,588.8159,150.2969,591.3963,160.09,590.3494" style="stroke:#181818;stroke-width:1.0;"/><text fill="#000000" font-family="sans-serif" font-size="13" lengthAdjust="spacing" textLength="35" x="43.18" y="483.1045">afecta</text></g><!--link Ruta to Horario--><g id="link_Ruta_Horario"><path codeLine="34" d="M146.25,501.6394 C157.86,523.7794 172.5149,551.7349 184.1649,573.9649 " fill="none" id="Ruta-to-Horario" style="stroke:#181818;stroke-width:1.0;"/><polygon fill="#181818" points="186.95,579.2794,186.3153,569.451,184.6291,574.8507,179.2294,573.1645,186.95,579.2794" style="stroke:#181818;stroke-width:1.0;"/><text fill="#000000" font-family="sans-serif" font-size="13" lengthAdjust="spacing" textLength="28" x="172.18" y="546.1045">tiene</text></g><!--link Ruta to Parada--><g id="link_Ruta_Parada"><path codeLine="35" d="M103.17,495.0294 C89.79,503.9194 75.55,516.2394 68.18,531.6094 C61.09,546.4094 61.0759,559.09 63.7559,573.54 " fill="none" id="Ruta-to-Parada" style="stroke:#181818;stroke-width:1.0;"/><polygon fill="#181818" points="64.85,579.4394,67.1417,569.8609,63.9382,574.5232,59.2759,571.3197,64.85,579.4394" style="stroke:#181818;stroke-width:1.0;"/><text fill="#000000" font-family="sans-serif" font-size="13" lengthAdjust="spacing" textLength="86" x="69.18" y="546.1045">compuesta por</text></g><!--link Flota to Vehiculo--><g id="link_Flota_Vehiculo"><path codeLine="37" d="M355.99,501.6394 C355.82,523.7794 355.5986,551.0496 355.4186,573.2796 " fill="none" id="Flota-to-Vehiculo" style="stroke:#181818;stroke-width:1.0;"/><polygon fill="#181818" points="355.37,579.2794,359.4427,570.3121,355.4105,574.2795,351.443,570.2473,355.37,579.2794" style="stroke:#181818;stroke-width:1.0;"/><text fill="#000000" font-family="sans-serif" font-size="13" lengthAdjust="spacing" textLength="41" x="356.18" y="546.1045">incluye</text></g><!--link Vehiculo to Usuario--><g id="link_Vehiculo_Usuario"><path codeLine="39" d="M353.05,627.8094 C352.3,637.0694 351.55,647.8394 351.18,657.6094 C350.58,673.6394 350.9635,685.7125 351.8835,699.6025 " fill="none" id="Vehiculo-to-Usuario" style="stroke:#181818;stroke-width:1.0;"/><polygon fill="#181818" points="352.28,705.5894,355.6764,696.3447,351.9496,700.6003,347.6939,696.8734,352.28,705.5894" style="stroke:#181818;stroke-width:1.0;"/><text fill="#000000" font-family="sans-serif" font-size="13" lengthAdjust="spacing" textLength="70" x="352.18" y="672.1045">utilizado por</text></g><!--link Usuario to Conductor--><g id="link_Usuario_Conductor"><path codeLine="40" d="M356.04,753.6394 C357.82,775.7794 360.0284,803.0687 361.8184,825.2987 " fill="none" id="Usuario-to-Conductor" style="stroke:#181818;stroke-width:1.0;"/><polygon fill="#181818" points="362.3,831.2794,365.5647,821.9874,361.8987,826.2955,357.5905,822.6295,362.3,831.2794" style="stroke:#181818;stroke-width:1.0;"/><text fill="#000000" font-family="sans-serif" font-size="13" lengthAdjust="spacing" textLength="42" x="360.18" y="798.1045">maneja</text></g><!--link Usuario to Pasajero--><g id="link_Usuario_Pasajero"><path codeLine="41" d="M332.26,753.6394 C311.2,775.7794 283.6768,804.7034 262.5168,826.9334 " fill="none" id="Usuario-to-Pasajero" style="stroke:#181818;stroke-width:1.0;"/><polygon fill="#181818" points="258.38,831.2794,267.4824,827.5183,261.8273,827.6578,261.6878,822.0026,258.38,831.2794" style="stroke:#181818;stroke-width:1.0;"/><text fill="#000000" font-family="sans-serif" font-size="13" lengthAdjust="spacing" textLength="43" x="303.18" y="798.1045">viaja en</text></g><!--link Pasajero to Tarifa--><g id="link_Pasajero_Tarifa"><path codeLine="43" d="M257.54,879.6394 C278.07,901.7794 304.8507,930.6494 325.4607,952.8794 " fill="none" id="Pasajero-to-Tarifa" style="stroke:#181818;stroke-width:1.0;"/><polygon fill="#181818" points="329.54,957.2794,326.3544,947.96,326.1406,953.6128,320.4878,953.399,329.54,957.2794" style="stroke:#181818;stroke-width:1.0;"/><text fill="#000000" font-family="sans-serif" font-size="13" lengthAdjust="spacing" textLength="28" x="301.18" y="924.1045">paga</text></g><!--link Pago to Abono--><g id="link_Pago_Abono"><path codeLine="45" d="M459.1,219.7794 C460.64,258.6394 463.4826,330.5141 465.0226,369.4041 " fill="none" id="Pago-to-Abono" style="stroke:#181818;stroke-width:1.0;"/><polygon fill="#181818" points="465.26,375.3994,468.9008,366.2482,465.0622,370.4033,460.907,366.5647,465.26,375.3994" style="stroke:#181818;stroke-width:1.0;"/><text fill="#000000" font-family="sans-serif" font-size="13" lengthAdjust="spacing" textLength="81" x="461.18" y="264.1045">se asocia con</text></g><!--link Abono to Tarifa--><g id="link_Abono_Tarifa"><path codeLine="46" d="M466.18,423.7294 C466.18,451.3094 466.18,498.8294 466.18,539.6094 C466.18,539.6094 466.18,539.6094 466.18,856.6094 C466.18,904.4694 424.68,938.5212 390.8,959.2212 " fill="none" id="Abono-to-Tarifa" style="stroke:#181818;stroke-width:1.0;"/><polygon fill="#181818" points="385.68,962.3494,395.4455,961.0704,389.9467,959.7425,391.2745,954.2437,385.68,962.3494" style="stroke:#181818;stroke-width:1.0;"/><text fill="#000000" font-family="sans-serif" font-size="13" lengthAdjust="spacing" textLength="128" x="467.18" y="672.1045">determina el precio de</text></g><!--SRC=[ZPFDJiCm3CVlUOeezxu01oGqG72RO73tKgzuwk8gIIS-n8jnvSM8soRh9hukLUBV_-yuZXifjgWl2HeFEz0rwaKB0OEkzCg32ntxY7hv-R5koR9IDj6WpJtwFLdYWsRP3mgZtzHxbjqwIpMc3qo1g-U8ta71yzqDU_34q-wkZnaimKETDzSj5_28JsJxDbiUGZzBi61NzpQoBra2RD5psJPvUR5cbzUhb643IlrsmQewdzrCdsdZiQ4GFPW_VKFvOcamH6Bt3ujKAexEiyMG36fsU5NbdeeaKiVc14zDFc2L8v9SsYm8DcWZc2CsFSXFk5mbmrp8Ttddx9kyQj2Vm4Zeq1pGE0T2BE-wFZKGT6fNSe-bY2QFXAZ8sRP_IHbKYOfa6XDHz95QUeMQnpoPYAgCZ-Xsu70Bnu8yJyBt15lGwD9H9IoQSPg6nuC61jgCP9Wv0G4r19QtifpyO_pOMsFgtOvIzx3LdSSqAka_DUeB]--></g></svg>