<?xml version="1.0" encoding="us-ascii" standalone="no"?><svg xmlns="http://www.w3.org/2000/svg" xmlns:xlink="http://www.w3.org/1999/xlink" contentStyleType="text/css" height="1078px" preserveAspectRatio="none" style="width:358px;height:1078px;background:#FFFFFF;" version="1.1" viewBox="0 0 358 1078" width="358px" zoomAndPan="magnify"><defs/><g><text fill="#000000" font-family="sans-serif" font-size="14" font-weight="bold" lengthAdjust="spacing" textLength="330" x="10" y="24.5332">Diagrama de Estados - Interacci&#243;n del Pasajero</text><ellipse cx="141" cy="54.6094" fill="#222222" rx="10" ry="10" style="stroke:#222222;stroke-width:1.0;"/><path d="M51.5,142.6094 L230.5,142.6094 A12.5,12.5 0 0 1 243,155.1094 L243,170.2188 L39,170.2188 L39,155.1094 A12.5,12.5 0 0 1 51.5,142.6094 " fill="#F1F1F1" style="stroke:#F1F1F1;stroke-width:1.0;"/><rect fill="none" height="276.6094" rx="12.5" ry="12.5" style="stroke:#181818;stroke-width:0.5;" width="204" x="39" y="142.6094"/><line style="stroke:#181818;stroke-width:0.5;" x1="39" x2="243" y1="170.2188" y2="170.2188"/><text fill="#000000" font-family="sans-serif" font-size="14" lengthAdjust="spacing" textLength="108" x="87" y="162.1426">EsperaEnParada</text><ellipse cx="110" cy="191.2188" fill="#222222" rx="10" ry="10" style="stroke:#222222;stroke-width:1.0;"/><g id="EsperaEnParada.Espera"><rect fill="#F1F1F1" height="50" rx="12.5" ry="12.5" style="stroke:#181818;stroke-width:0.5;" width="65" x="77.5" y="255.2188"/><line style="stroke:#181818;stroke-width:0.5;" x1="77.5" x2="142.5" y1="282.8281" y2="282.8281"/><text fill="#000000" font-family="sans-serif" font-size="14" lengthAdjust="spacing" textLength="45" x="87.5" y="274.752">Espera</text></g><g id="EsperaEnParada.AbordaAutobus"><rect fill="#F1F1F1" height="50" rx="12.5" ry="12.5" style="stroke:#181818;stroke-width:0.5;" width="118" x="51" y="359.2188"/><line style="stroke:#181818;stroke-width:0.5;" x1="51" x2="169" y1="386.8281" y2="386.8281"/><text fill="#000000" font-family="sans-serif" font-size="14" lengthAdjust="spacing" textLength="98" x="61" y="378.752">AbordaAutobus</text></g><!--link *start*EsperaEnParada to Espera--><g id="link_*start*EsperaEnParada_Espera"><path d="M110,201.5288 C110,214.1588 110,231.1588 110,248.8688 " fill="none" id="*start*EsperaEnParada-to-Espera" style="stroke:#181818;stroke-width:1.0;"/><polygon fill="#181818" points="110,254.8688,114,245.8688,110,249.8688,106,245.8688,110,254.8688" style="stroke:#181818;stroke-width:1.0;"/><text fill="#000000" font-family="sans-serif" font-size="13" lengthAdjust="spacing" textLength="113" x="111" y="233.7139">"Espera a una ruta"</text></g><!--link Espera to AbordaAutobus--><g id="link_Espera_AbordaAutobus"><path d="M110,305.3888 C110,321.5288 110,336.6888 110,352.8688 " fill="none" id="Espera-to-AbordaAutobus" style="stroke:#181818;stroke-width:1.0;"/><polygon fill="#181818" points="110,358.8688,114,349.8688,110,353.8688,106,349.8688,110,358.8688" style="stroke:#181818;stroke-width:1.0;"/><text fill="#000000" font-family="sans-serif" font-size="13" lengthAdjust="spacing" textLength="122" x="111" y="337.7139">"Se sube al autob&#250;s"</text></g><path d="M64,497.6094 L218,497.6094 A12.5,12.5 0 0 1 230.5,510.1094 L230.5,525.2188 L51.5,525.2188 L51.5,510.1094 A12.5,12.5 0 0 1 64,497.6094 " fill="#F1F1F1" style="stroke:#F1F1F1;stroke-width:1.0;"/><rect fill="none" height="363.6094" rx="12.5" ry="12.5" style="stroke:#181818;stroke-width:0.5;" width="179" x="51.5" y="497.6094"/><line style="stroke:#181818;stroke-width:0.5;" x1="51.5" x2="230.5" y1="525.2188" y2="525.2188"/><text fill="#000000" font-family="sans-serif" font-size="14" lengthAdjust="spacing" textLength="73" x="104.5" y="517.1426">EnTrayecto</text><ellipse cx="129.5" cy="546.2188" fill="#222222" rx="10" ry="10" style="stroke:#222222;stroke-width:1.0;"/><g id="EnTrayecto.PagoTarifa"><rect fill="#F1F1F1" height="50" rx="12.5" ry="12.5" style="stroke:#181818;stroke-width:0.5;" width="90" x="84.5" y="593.2188"/><line style="stroke:#181818;stroke-width:0.5;" x1="84.5" x2="174.5" y1="620.8281" y2="620.8281"/><text fill="#000000" font-family="sans-serif" font-size="14" lengthAdjust="spacing" textLength="70" x="94.5" y="612.752">PagoTarifa</text></g><g id="EnTrayecto.ConfirmarPago"><rect fill="#F1F1F1" height="50" rx="12.5" ry="12.5" style="stroke:#181818;stroke-width:0.5;" width="115" x="72" y="697.2188"/><line style="stroke:#181818;stroke-width:0.5;" x1="72" x2="187" y1="724.8281" y2="724.8281"/><text fill="#000000" font-family="sans-serif" font-size="14" lengthAdjust="spacing" textLength="95" x="82" y="716.752">ConfirmarPago</text></g><g id="EnTrayecto.EncuentraAsiento"><rect fill="#F1F1F1" height="50" rx="12.5" ry="12.5" style="stroke:#181818;stroke-width:0.5;" width="132" x="63.5" y="801.2188"/><line style="stroke:#181818;stroke-width:0.5;" x1="63.5" x2="195.5" y1="828.8281" y2="828.8281"/><text fill="#000000" font-family="sans-serif" font-size="14" lengthAdjust="spacing" textLength="112" x="73.5" y="820.752">EncuentraAsiento</text></g><!--link *start*EnTrayecto to PagoTarifa--><g id="link_*start*EnTrayecto_PagoTarifa"><path d="M129.5,556.3688 C129.5,565.6388 129.5,574.3588 129.5,586.9988 " fill="none" id="*start*EnTrayecto-to-PagoTarifa" style="stroke:#181818;stroke-width:1.0;"/><polygon fill="#181818" points="129.5,592.9988,133.5,583.9988,129.5,587.9988,125.5,583.9988,129.5,592.9988" style="stroke:#181818;stroke-width:1.0;"/></g><!--link PagoTarifa to ConfirmarPago--><g id="link_PagoTarifa_ConfirmarPago"><path d="M129.5,643.3888 C129.5,659.5288 129.5,674.6888 129.5,690.8688 " fill="none" id="PagoTarifa-to-ConfirmarPago" style="stroke:#181818;stroke-width:1.0;"/><polygon fill="#181818" points="129.5,696.8688,133.5,687.8688,129.5,691.8688,125.5,687.8688,129.5,696.8688" style="stroke:#181818;stroke-width:1.0;"/><text fill="#000000" font-family="sans-serif" font-size="13" lengthAdjust="spacing" textLength="90" x="130.5" y="675.7139">"Paga su tarifa"</text></g><!--link ConfirmarPago to EncuentraAsiento--><g id="link_ConfirmarPago_EncuentraAsiento"><path d="M129.5,747.3888 C129.5,763.5288 129.5,778.6888 129.5,794.8688 " fill="none" id="ConfirmarPago-to-EncuentraAsiento" style="stroke:#181818;stroke-width:1.0;"/><polygon fill="#181818" points="129.5,800.8688,133.5,791.8688,129.5,795.8688,125.5,791.8688,129.5,800.8688" style="stroke:#181818;stroke-width:1.0;"/><text fill="#000000" font-family="sans-serif" font-size="13" lengthAdjust="spacing" textLength="65" x="130.5" y="779.7139">"Se sienta"</text></g><g id="FinDeViaje"><rect fill="#F1F1F1" height="50" rx="12.5" ry="12.5" style="stroke:#181818;stroke-width:0.5;" width="89" x="96.5" y="939.6094"/><line style="stroke:#181818;stroke-width:0.5;" x1="96.5" x2="185.5" y1="967.2188" y2="967.2188"/><text fill="#000000" font-family="sans-serif" font-size="14" lengthAdjust="spacing" textLength="69" x="106.5" y="959.1426">FinDeViaje</text></g><ellipse cx="141" cy="1061.6094" fill="none" rx="11" ry="11" style="stroke:#222222;stroke-width:1.0;"/><ellipse cx="141" cy="1061.6094" fill="#222222" rx="6" ry="6" style="stroke:#222222;stroke-width:1.0;"/><!--link *start* to EsperaEnParada--><g id="link_*start*_EsperaEnParada"><path d="M141,64.6894 C141,79.1694 141,103.2594 141,136.4894 " fill="none" id="*start*-to-EsperaEnParada" style="stroke:#181818;stroke-width:1.0;"/><polygon fill="#181818" points="141,142.4894,145,133.4894,141,137.4894,137,133.4894,141,142.4894" style="stroke:#181818;stroke-width:1.0;"/><text fill="#000000" font-family="sans-serif" font-size="13" lengthAdjust="spacing" textLength="182" x="142" y="109.1045">"Entra al servicio de transporte"</text></g><!--link EsperaEnParada to EnTrayecto--><g id="link_EsperaEnParada_EnTrayecto"><path d="M141,419.6694 C141,444.7194 141,465.2094 141,491.2894 " fill="none" id="EsperaEnParada-to-EnTrayecto" style="stroke:#181818;stroke-width:1.0;"/><polygon fill="#181818" points="141,497.2894,145,488.2894,141,492.2894,137,488.2894,141,497.2894" style="stroke:#181818;stroke-width:1.0;"/><text fill="#000000" font-family="sans-serif" font-size="13" lengthAdjust="spacing" textLength="108" x="142" y="464.1045">"Pasajero a bordo"</text></g><!--link EnTrayecto to FinDeViaje--><g id="link_EnTrayecto_FinDeViaje"><path d="M141,861.8394 C141,892.5094 141,914.4694 141,933.2794 " fill="none" id="EnTrayecto-to-FinDeViaje" style="stroke:#181818;stroke-width:1.0;"/><polygon fill="#181818" points="141,939.2794,145,930.2794,141,934.2794,137,930.2794,141,939.2794" style="stroke:#181818;stroke-width:1.0;"/><text fill="#000000" font-family="sans-serif" font-size="13" lengthAdjust="spacing" textLength="134" x="142" y="906.1045">"se baja en su destino"</text></g><!--link FinDeViaje to *end*--><g id="link_FinDeViaje_*end*"><path d="M141,990.0694 C141,1009.6494 141,1030.0994 141,1044.4094 " fill="none" id="FinDeViaje-to-*end*" style="stroke:#181818;stroke-width:1.0;"/><polygon fill="#181818" points="141,1050.4094,145,1041.4094,141,1045.4094,137,1041.4094,141,1050.4094" style="stroke:#181818;stroke-width:1.0;"/></g><!--SRC=[NL2xQiCm5Dtr5HUF1Vz0Xu9fKkXcQCXIEXpRDqR1aSALL2YbNzMjQtwikdA3wtYnTNIUZZPEJ1kBKN023KpR437uG3KzkyY2lhUNRvTl9ceHS6JnnhpUlL5TFsJoELEsheLW0DrJjNLHG9WeiBpRtdhrp90BPo-HAsEoV-HRvQUX_AnjYzty1KeE92cYAiG_MBbDvsL0awBlKb392rD87Mi7A7hv2PNvCkOciUIudU23- -XLU9sNqzJJBrqNshfdYz7l8FQ00Y_7SlletS7A2QBu730YTwDOEFEIDMakrIVMlzW4cz_-kaaFc9SiVLJmPDs6zpPtLsfWwd04iTEeWKEqJgVyOwaeJ_W5]--></g></svg>