<?xml version="1.0" encoding="us-ascii" standalone="no"?><svg xmlns="http://www.w3.org/2000/svg" xmlns:xlink="http://www.w3.org/1999/xlink" contentStyleType="text/css" height="1058px" preserveAspectRatio="none" style="width:218px;height:1058px;background:#FFFFFF;" version="1.1" viewBox="0 0 218 1058" width="218px" zoomAndPan="magnify"><defs/><g><ellipse cx="105.5" cy="16" fill="#222222" rx="10" ry="10" style="stroke:#222222;stroke-width:1.0;"/><path d="M19.5,87 L191,87 A12.5,12.5 0 0 1 203.5,99.5 L203.5,114.6094 L7,114.6094 L7,99.5 A12.5,12.5 0 0 1 19.5,87 " fill="#F1F1F1" style="stroke:#F1F1F1;stroke-width:1.0;"/><rect fill="none" height="363.6094" rx="12.5" ry="12.5" style="stroke:#181818;stroke-width:0.5;" width="196.5" x="7" y="87"/><line style="stroke:#181818;stroke-width:0.5;" x1="7" x2="203.5" y1="114.6094" y2="114.6094"/><text fill="#000000" font-family="sans-serif" font-size="14" lengthAdjust="spacing" textLength="39" x="85.75" y="106.5332">Entrar</text><ellipse cx="77.5" cy="135.6094" fill="#222222" rx="10" ry="10" style="stroke:#222222;stroke-width:1.0;"/><g id="Entrar.IrALaParada"><rect fill="#F1F1F1" height="50" rx="12.5" ry="12.5" style="stroke:#181818;stroke-width:0.5;" width="99" x="28" y="182.6094"/><line style="stroke:#181818;stroke-width:0.5;" x1="28" x2="127" y1="210.2188" y2="210.2188"/><text fill="#000000" font-family="sans-serif" font-size="14" lengthAdjust="spacing" textLength="79" x="38" y="202.1426">IrALaParada</text></g><g id="Entrar.Espera"><rect fill="#F1F1F1" height="50" rx="12.5" ry="12.5" style="stroke:#181818;stroke-width:0.5;" width="65" x="45" y="286.6094"/><line style="stroke:#181818;stroke-width:0.5;" x1="45" x2="110" y1="314.2188" y2="314.2188"/><text fill="#000000" font-family="sans-serif" font-size="14" lengthAdjust="spacing" textLength="45" x="55" y="306.1426">Espera</text></g><g id="Entrar.SubirAlAutobus"><rect fill="#F1F1F1" height="50" rx="12.5" ry="12.5" style="stroke:#181818;stroke-width:0.5;" width="117" x="19" y="390.6094"/><line style="stroke:#181818;stroke-width:0.5;" x1="19" x2="136" y1="418.2188" y2="418.2188"/><text fill="#000000" font-family="sans-serif" font-size="14" lengthAdjust="spacing" textLength="97" x="29" y="410.1426">SubirAlAutobus</text></g><!--link *start*Entrar to IrALaParada--><g id="link_*start*Entrar_IrALaParada"><path d="M77.5,145.7594 C77.5,155.0294 77.5,163.7494 77.5,176.3894 " fill="none" id="*start*Entrar-to-IrALaParada" style="stroke:#181818;stroke-width:1.0;"/><polygon fill="#181818" points="77.5,182.3894,81.5,173.3894,77.5,177.3894,73.5,173.3894,77.5,182.3894" style="stroke:#181818;stroke-width:1.0;"/></g><!--link IrALaParada to Espera--><g id="link_IrALaParada_Espera"><path d="M77.5,232.7794 C77.5,248.9194 77.5,264.0794 77.5,280.2594 " fill="none" id="IrALaParada-to-Espera" style="stroke:#181818;stroke-width:1.0;"/><polygon fill="#181818" points="77.5,286.2594,81.5,277.2594,77.5,281.2594,73.5,277.2594,77.5,286.2594" style="stroke:#181818;stroke-width:1.0;"/><text fill="#000000" font-family="sans-serif" font-size="13" lengthAdjust="spacing" textLength="115" x="78.5" y="265.1045">"Acudir a la parada"</text></g><!--link Espera to SubirAlAutobus--><g id="link_Espera_SubirAlAutobus"><path d="M77.5,336.7794 C77.5,352.9194 77.5,368.0794 77.5,384.2594 " fill="none" id="Espera-to-SubirAlAutobus" style="stroke:#181818;stroke-width:1.0;"/><polygon fill="#181818" points="77.5,390.2594,81.5,381.2594,77.5,385.2594,73.5,381.2594,77.5,390.2594" style="stroke:#181818;stroke-width:1.0;"/><text fill="#000000" font-family="sans-serif" font-size="13" lengthAdjust="spacing" textLength="113" x="78.5" y="369.1045">"Espera a una ruta"</text></g><path d="M23,529 L188,529 A12.5,12.5 0 0 1 200.5,541.5 L200.5,556.6094 L10.5,556.6094 L10.5,541.5 A12.5,12.5 0 0 1 23,529 " fill="#F1F1F1" style="stroke:#F1F1F1;stroke-width:1.0;"/><rect fill="none" height="439.6094" rx="12.5" ry="12.5" style="stroke:#181818;stroke-width:0.5;" width="190" x="10.5" y="529"/><line style="stroke:#181818;stroke-width:0.5;" x1="10.5" x2="200.5" y1="556.6094" y2="556.6094"/><text fill="#000000" font-family="sans-serif" font-size="14" lengthAdjust="spacing" textLength="33" x="89" y="548.5332">Pago</text><ellipse cx="73.5" cy="577.6094" fill="#222222" rx="10" ry="10" style="stroke:#222222;stroke-width:1.0;"/><g id="Pago.SacarTarjeta"><rect fill="#F1F1F1" height="50" rx="12.5" ry="12.5" style="stroke:#181818;stroke-width:0.5;" width="102" x="22.5" y="624.6094"/><line style="stroke:#181818;stroke-width:0.5;" x1="22.5" x2="124.5" y1="652.2188" y2="652.2188"/><text fill="#000000" font-family="sans-serif" font-size="14" lengthAdjust="spacing" textLength="82" x="32.5" y="644.1426">SacarTarjeta</text></g><g id="Pago.PagarTarifa"><rect fill="#F1F1F1" height="50" rx="12.5" ry="12.5" style="stroke:#181818;stroke-width:0.5;" width="95" x="26" y="728.6094"/><line style="stroke:#181818;stroke-width:0.5;" x1="26" x2="121" y1="756.2188" y2="756.2188"/><text fill="#000000" font-family="sans-serif" font-size="14" lengthAdjust="spacing" textLength="75" x="36" y="748.1426">PagarTarifa</text></g><g id="Pago.Sentarse"><rect fill="#F1F1F1" height="50" rx="12.5" ry="12.5" style="stroke:#181818;stroke-width:0.5;" width="77" x="35" y="832.6094"/><line style="stroke:#181818;stroke-width:0.5;" x1="35" x2="112" y1="860.2188" y2="860.2188"/><text fill="#000000" font-family="sans-serif" font-size="14" lengthAdjust="spacing" textLength="57" x="45" y="852.1426">Sentarse</text></g><ellipse cx="73.5" cy="947.6094" fill="none" rx="11" ry="11" style="stroke:#222222;stroke-width:1.0;"/><ellipse cx="73.5" cy="947.6094" fill="#222222" rx="6" ry="6" style="stroke:#222222;stroke-width:1.0;"/><!--link *start*Pago to SacarTarjeta--><g id="link_*start*Pago_SacarTarjeta"><path d="M73.5,587.7594 C73.5,597.0294 73.5,605.7494 73.5,618.3894 " fill="none" id="*start*Pago-to-SacarTarjeta" style="stroke:#181818;stroke-width:1.0;"/><polygon fill="#181818" points="73.5,624.3894,77.5,615.3894,73.5,619.3894,69.5,615.3894,73.5,624.3894" style="stroke:#181818;stroke-width:1.0;"/></g><!--link SacarTarjeta to PagarTarifa--><g id="link_SacarTarjeta_PagarTarifa"><path d="M73.5,674.7794 C73.5,690.9194 73.5,706.0794 73.5,722.2594 " fill="none" id="SacarTarjeta-to-PagarTarifa" style="stroke:#181818;stroke-width:1.0;"/><polygon fill="#181818" points="73.5,728.2594,77.5,719.2594,73.5,723.2594,69.5,719.2594,73.5,728.2594" style="stroke:#181818;stroke-width:1.0;"/><text fill="#000000" font-family="sans-serif" font-size="13" lengthAdjust="spacing" textLength="116" x="74.5" y="707.1045">"Ligada a su abono"</text></g><!--link PagarTarifa to Sentarse--><g id="link_PagarTarifa_Sentarse"><path d="M73.5,778.7794 C73.5,794.9194 73.5,810.0794 73.5,826.2594 " fill="none" id="PagarTarifa-to-Sentarse" style="stroke:#181818;stroke-width:1.0;"/><polygon fill="#181818" points="73.5,832.2594,77.5,823.2594,73.5,827.2594,69.5,823.2594,73.5,832.2594" style="stroke:#181818;stroke-width:1.0;"/><text fill="#000000" font-family="sans-serif" font-size="13" lengthAdjust="spacing" textLength="90" x="74.5" y="811.1045">"Paga su tarifa"</text></g><!--link Sentarse to *end*Pago--><g id="link_Sentarse_*end*Pago"><path d="M73.5,882.6594 C73.5,900.3694 73.5,917.5494 73.5,930.5794 " fill="none" id="Sentarse-to-*end*Pago" style="stroke:#181818;stroke-width:1.0;"/><polygon fill="#181818" points="73.5,936.5794,77.5,927.5794,73.5,931.5794,69.5,927.5794,73.5,936.5794" style="stroke:#181818;stroke-width:1.0;"/><text fill="#000000" font-family="sans-serif" font-size="13" lengthAdjust="spacing" textLength="65" x="74.5" y="915.1045">"Se sienta"</text></g><ellipse cx="105.5" cy="1041" fill="none" rx="11" ry="11" style="stroke:#222222;stroke-width:1.0;"/><ellipse cx="105.5" cy="1041" fill="#222222" rx="6" ry="6" style="stroke:#222222;stroke-width:1.0;"/><!--link *start* to Entrar--><g id="link_*start*_Entrar"><path d="M105.5,26.23 C105.5,38.13 105.5,54.46 105.5,80.92 " fill="none" id="*start*-to-Entrar" style="stroke:#181818;stroke-width:1.0;"/><polygon fill="#181818" points="105.5,86.92,109.5,77.92,105.5,81.92,101.5,77.92,105.5,86.92" style="stroke:#181818;stroke-width:1.0;"/></g><!--link Entrar to Pago--><g id="link_Entrar_Pago"><path d="M105.5,451.05 C105.5,476.42 105.5,496.71 105.5,522.7 " fill="none" id="Entrar-to-Pago" style="stroke:#181818;stroke-width:1.0;"/><polygon fill="#181818" points="105.5,528.7,109.5,519.7,105.5,523.7,101.5,519.7,105.5,528.7" style="stroke:#181818;stroke-width:1.0;"/><text fill="#000000" font-family="sans-serif" font-size="13" lengthAdjust="spacing" textLength="104" x="106.5" y="495.4951">"Subir al autob&#250;s"</text></g><!--link Pago to *end*--><g id="link_Pago_*end*"><path d="M105.5,969.06 C105.5,995.53 105.5,1011.5 105.5,1023.68 " fill="none" id="Pago-to-*end*" style="stroke:#181818;stroke-width:1.0;"/><polygon fill="#181818" points="105.5,1029.68,109.5,1020.68,105.5,1024.68,101.5,1020.68,105.5,1029.68" style="stroke:#181818;stroke-width:1.0;"/></g><!--SRC=[JP2nQiCm48PtFSNXiP0Nw53GqA6G8P1i9SDlMp5A5TcSJX08VR6kVR7gL3buCTpzttzySlhoSG7ZHgEx80SvkRlOuATuSr5eA1_7ndo-d6ctUwFtA8mo9u6uDj734At01ziz3kNWYBBTJF_rj3W6lL9dXpnw9b00BHNe2jzoHO-vzso3pJBtEMcbXQ0SGPobDBwDQGvQEM2Q5QnLGY1e-VSdTQjm9RQwHmpW4_ZgH7stutgoBlobMk_zf4y1fKpevpYhz9QfDyi_0oUd1SqKbXeh_KmLLGqLTfIyxkkBgcHBpHy0]--></g></svg>