<?xml version="1.0" encoding="us-ascii" standalone="no"?><svg xmlns="http://www.w3.org/2000/svg" xmlns:xlink="http://www.w3.org/1999/xlink" contentStyleType="text/css" height="815px" preserveAspectRatio="none" style="width:572px;height:815px;background:#FFFFFF;" version="1.1" viewBox="0 0 572 815" width="572px" zoomAndPan="magnify"><defs/><g><!--class Servicio transporte p?blico--><g id="elem_Servicio transporte p&#250;blico"><rect codeLine="3" fill="#F1F1F1" height="43.6094" id="Servicio transporte p&#250;blico" rx="2.5" ry="2.5" style="stroke:#181818;stroke-width:0.5;" width="174" x="247" y="7"/><text fill="#000000" font-family="sans-serif" font-size="14" lengthAdjust="spacing" textLength="168" x="250" y="26.5332">Servicio transporte p&#250;blico</text><line style="stroke:#181818;stroke-width:0.5;" x1="248" x2="420" y1="34.6094" y2="34.6094"/><line style="stroke:#181818;stroke-width:0.5;" x1="248" x2="420" y1="42.6094" y2="42.6094"/></g><!--class Incidencias--><g id="elem_Incidencias"><rect codeLine="6" fill="#F1F1F1" height="43.6094" id="Incidencias" rx="2.5" ry="2.5" style="stroke:#181818;stroke-width:0.5;" width="76" x="97" y="129"/><text fill="#000000" font-family="sans-serif" font-size="14" lengthAdjust="spacing" textLength="70" x="100" y="148.5332">Incidencias</text><line style="stroke:#181818;stroke-width:0.5;" x1="98" x2="172" y1="156.6094" y2="156.6094"/><line style="stroke:#181818;stroke-width:0.5;" x1="98" x2="172" y1="164.6094" y2="164.6094"/></g><!--class Externa--><g id="elem_Externa"><rect codeLine="7" fill="#F1F1F1" height="43.6094" id="Externa" rx="2.5" ry="2.5" style="stroke:#181818;stroke-width:0.5;" width="54" x="208" y="129"/><text fill="#000000" font-family="sans-serif" font-size="14" lengthAdjust="spacing" textLength="48" x="211" y="148.5332">Externa</text><line style="stroke:#181818;stroke-width:0.5;" x1="209" x2="261" y1="156.6094" y2="156.6094"/><line style="stroke:#181818;stroke-width:0.5;" x1="209" x2="261" y1="164.6094" y2="164.6094"/></g><!--class Interna--><g id="elem_Interna"><rect codeLine="8" fill="#F1F1F1" height="43.6094" id="Interna" rx="2.5" ry="2.5" style="stroke:#181818;stroke-width:0.5;" width="50" x="7" y="129"/><text fill="#000000" font-family="sans-serif" font-size="14" lengthAdjust="spacing" textLength="44" x="10" y="148.5332">Interna</text><line style="stroke:#181818;stroke-width:0.5;" x1="8" x2="56" y1="156.6094" y2="156.6094"/><line style="stroke:#181818;stroke-width:0.5;" x1="8" x2="56" y1="164.6094" y2="164.6094"/></g><!--class Horario--><g id="elem_Horario"><rect codeLine="9" fill="#F1F1F1" height="43.6094" id="Horario" rx="2.5" ry="2.5" style="stroke:#181818;stroke-width:0.5;" width="52" x="162" y="399"/><text fill="#000000" font-family="sans-serif" font-size="14" lengthAdjust="spacing" textLength="46" x="165" y="418.5332">Horario</text><line style="stroke:#181818;stroke-width:0.5;" x1="163" x2="213" y1="426.6094" y2="426.6094"/><line style="stroke:#181818;stroke-width:0.5;" x1="163" x2="213" y1="434.6094" y2="434.6094"/></g><!--class Ruta--><g id="elem_Ruta"><rect codeLine="10" fill="#F1F1F1" height="43.6094" id="Ruta" rx="2.5" ry="2.5" style="stroke:#181818;stroke-width:0.5;" width="36" x="85" y="251"/><text fill="#000000" font-family="sans-serif" font-size="14" lengthAdjust="spacing" textLength="30" x="88" y="270.5332">Ruta</text><line style="stroke:#181818;stroke-width:0.5;" x1="86" x2="120" y1="278.6094" y2="278.6094"/><line style="stroke:#181818;stroke-width:0.5;" x1="86" x2="120" y1="286.6094" y2="286.6094"/></g><!--class Paradas--><g id="elem_Paradas"><rect codeLine="11" fill="#F1F1F1" height="43.6094" id="Paradas" rx="2.5" ry="2.5" style="stroke:#181818;stroke-width:0.5;" width="59" x="67.5" y="399"/><text fill="#000000" font-family="sans-serif" font-size="14" lengthAdjust="spacing" textLength="53" x="70.5" y="418.5332">Paradas</text><line style="stroke:#181818;stroke-width:0.5;" x1="68.5" x2="125.5" y1="426.6094" y2="426.6094"/><line style="stroke:#181818;stroke-width:0.5;" x1="68.5" x2="125.5" y1="434.6094" y2="434.6094"/></g><!--class Flota--><g id="elem_Flota"><rect codeLine="12" fill="#F1F1F1" height="43.6094" id="Flota" rx="2.5" ry="2.5" style="stroke:#181818;stroke-width:0.5;" width="38" x="315" y="251"/><text fill="#000000" font-family="sans-serif" font-size="14" lengthAdjust="spacing" textLength="32" x="318" y="270.5332">Flota</text><line style="stroke:#181818;stroke-width:0.5;" x1="316" x2="352" y1="278.6094" y2="278.6094"/><line style="stroke:#181818;stroke-width:0.5;" x1="316" x2="352" y1="286.6094" y2="286.6094"/></g><!--class Veh?culos--><g id="elem_Veh&#237;culos"><rect codeLine="13" fill="#F1F1F1" height="43.6094" id="Veh&#237;culos" rx="2.5" ry="2.5" style="stroke:#181818;stroke-width:0.5;" width="67" x="296.5" y="399"/><text fill="#000000" font-family="sans-serif" font-size="14" lengthAdjust="spacing" textLength="61" x="299.5" y="418.5332">Veh&#237;culos</text><line style="stroke:#181818;stroke-width:0.5;" x1="297.5" x2="362.5" y1="426.6094" y2="426.6094"/><line style="stroke:#181818;stroke-width:0.5;" x1="297.5" x2="362.5" y1="434.6094" y2="434.6094"/></g><!--class Usuario--><g id="elem_Usuario"><rect codeLine="14" fill="#F1F1F1" height="43.6094" id="Usuario" rx="2.5" ry="2.5" style="stroke:#181818;stroke-width:0.5;" width="54" x="303" y="521"/><text fill="#000000" font-family="sans-serif" font-size="14" lengthAdjust="spacing" textLength="48" x="306" y="540.5332">Usuario</text><line style="stroke:#181818;stroke-width:0.5;" x1="304" x2="356" y1="548.6094" y2="548.6094"/><line style="stroke:#181818;stroke-width:0.5;" x1="304" x2="356" y1="556.6094" y2="556.6094"/></g><!--class Conductor--><g id="elem_Conductor"><rect codeLine="15" fill="#F1F1F1" height="43.6094" id="Conductor" rx="2.5" ry="2.5" style="stroke:#181818;stroke-width:0.5;" width="72" x="325" y="643"/><text fill="#000000" font-family="sans-serif" font-size="14" lengthAdjust="spacing" textLength="66" x="328" y="662.5332">Conductor</text><line style="stroke:#181818;stroke-width:0.5;" x1="326" x2="396" y1="670.6094" y2="670.6094"/><line style="stroke:#181818;stroke-width:0.5;" x1="326" x2="396" y1="678.6094" y2="678.6094"/></g><!--class Pasajero--><g id="elem_Pasajero"><rect codeLine="16" fill="#F1F1F1" height="43.6094" id="Pasajero" rx="2.5" ry="2.5" style="stroke:#181818;stroke-width:0.5;" width="62" x="228" y="643"/><text fill="#000000" font-family="sans-serif" font-size="14" lengthAdjust="spacing" textLength="56" x="231" y="662.5332">Pasajero</text><line style="stroke:#181818;stroke-width:0.5;" x1="229" x2="289" y1="670.6094" y2="670.6094"/><line style="stroke:#181818;stroke-width:0.5;" x1="229" x2="289" y1="678.6094" y2="678.6094"/></g><!--class Pagos--><g id="elem_Pagos"><rect codeLine="17" fill="#F1F1F1" height="43.6094" id="Pagos" rx="2.5" ry="2.5" style="stroke:#181818;stroke-width:0.5;" width="46" x="416" y="129"/><text fill="#000000" font-family="sans-serif" font-size="14" lengthAdjust="spacing" textLength="40" x="419" y="148.5332">Pagos</text><line style="stroke:#181818;stroke-width:0.5;" x1="417" x2="461" y1="156.6094" y2="156.6094"/><line style="stroke:#181818;stroke-width:0.5;" x1="417" x2="461" y1="164.6094" y2="164.6094"/></g><!--class Abonos--><g id="elem_Abonos"><rect codeLine="18" fill="#F1F1F1" height="43.6094" id="Abonos" rx="2.5" ry="2.5" style="stroke:#181818;stroke-width:0.5;" width="54" x="423" y="325"/><text fill="#000000" font-family="sans-serif" font-size="14" lengthAdjust="spacing" textLength="48" x="426" y="344.5332">Abonos</text><line style="stroke:#181818;stroke-width:0.5;" x1="424" x2="476" y1="352.6094" y2="352.6094"/><line style="stroke:#181818;stroke-width:0.5;" x1="424" x2="476" y1="360.6094" y2="360.6094"/></g><!--class Tarifa--><g id="elem_Tarifa"><rect codeLine="19" fill="#F1F1F1" height="43.6094" id="Tarifa" rx="2.5" ry="2.5" style="stroke:#181818;stroke-width:0.5;" width="43" x="332.5" y="765"/><text fill="#000000" font-family="sans-serif" font-size="14" lengthAdjust="spacing" textLength="37" x="335.5" y="784.5332">Tarifa</text><line style="stroke:#181818;stroke-width:0.5;" x1="333.5" x2="374.5" y1="792.6094" y2="792.6094"/><line style="stroke:#181818;stroke-width:0.5;" x1="333.5" x2="374.5" y1="800.6094" y2="800.6094"/></g><!--link Servicio transporte p?blico to Incidencias--><g id="link_Servicio transporte p&#250;blico_Incidencias"><path codeLine="21" d="M298.88,51.18 C262.62,73.04 211.4984,103.8722 175.2384,125.7322 " fill="none" id="Servicio transporte p&#250;blico-to-Incidencias" style="stroke:#181818;stroke-width:1.0;"/><polygon fill="#181818" points="170.1,128.83,179.8729,127.6089,174.382,126.2485,175.7425,120.7577,170.1,128.83" style="stroke:#181818;stroke-width:1.0;"/><text fill="#000000" font-family="sans-serif" font-size="13" lengthAdjust="spacing" textLength="31" x="247" y="95.4951">Tiene</text></g><!--link Servicio transporte p?blico to Flota--><g id="link_Servicio transporte p&#250;blico_Flota"><path codeLine="22" d="M334,51.05 C334,96.82 334,198.94 334,244.82 " fill="none" id="Servicio transporte p&#250;blico-to-Flota" style="stroke:#181818;stroke-width:1.0;"/><polygon fill="#181818" points="334,250.82,338,241.82,334,245.82,330,241.82,334,250.82" style="stroke:#181818;stroke-width:1.0;"/><text fill="#000000" font-family="sans-serif" font-size="13" lengthAdjust="spacing" textLength="31" x="335" y="156.4951">Tiene</text></g><!--link Servicio transporte p?blico to Pagos--><g id="link_Servicio transporte p&#250;blico_Pagos"><path codeLine="23" d="M352.53,51.18 C371.61,72.98 397.2197,102.2439 416.3497,124.1139 " fill="none" id="Servicio transporte p&#250;blico-to-Pagos" style="stroke:#181818;stroke-width:1.0;"/><polygon fill="#181818" points="420.3,128.63,417.3853,119.2223,417.0081,124.8666,411.3638,124.4894,420.3,128.63" style="stroke:#181818;stroke-width:1.0;"/><text fill="#000000" font-family="sans-serif" font-size="13" lengthAdjust="spacing" textLength="31" x="393" y="95.4951">Tiene</text></g><!--link Incidencias to Externa--><g id="link_Incidencias_Externa"><path codeLine="25" d="M173.28,151 C184.85,151 190.43,151 202,151 " fill="none" id="Incidencias-to-Externa" style="stroke:#181818;stroke-width:1.0;"/><polygon fill="#181818" points="208,151,199,147,203,151,199,155,208,151" style="stroke:#181818;stroke-width:1.0;"/></g><!--reverse link Interna to Incidencias--><g id="link_Interna_Incidencias"><path codeLine="26" d="M63.35,151 C76.49,151 83.64,151 96.78,151 " fill="none" id="Interna-backto-Incidencias" style="stroke:#181818;stroke-width:1.0;"/><polygon fill="#181818" points="57.35,151,66.35,155,62.35,151,66.35,147,57.35,151" style="stroke:#181818;stroke-width:1.0;"/></g><!--link Interna to Ruta--><g id="link_Interna_Ruta"><path codeLine="28" d="M24.35,173.15 C20.51,187.47 18.15,206.38 26,221 C38.37,244.02 60.6254,256.191 79.2154,263.591 " fill="none" id="Interna-to-Ruta" style="stroke:#181818;stroke-width:1.0;"/><polygon fill="#181818" points="84.79,265.81,77.9075,258.7651,80.1445,263.9608,74.9488,266.1978,84.79,265.81" style="stroke:#181818;stroke-width:1.0;"/><text fill="#000000" font-family="sans-serif" font-size="13" lengthAdjust="spacing" textLength="35" x="27" y="217.4951">afecta</text></g><!--link Interna to Horario--><g id="link_Interna_Horario"><path codeLine="29" d="M22.62,173.41 C19.18,182.37 15.71,193 14,203 C8.48,235.23 29.8,294.59 30,295 C48.86,333.54 58.66,341.99 92,369 C103.58,378.38 132.0479,392.9785 156.2679,404.7985 " fill="none" id="Interna-to-Horario" style="stroke:#181818;stroke-width:1.0;"/><polygon fill="#181818" points="161.66,407.43,155.3261,399.888,157.1666,405.2371,151.8175,407.0775,161.66,407.43" style="stroke:#181818;stroke-width:1.0;"/><text fill="#000000" font-family="sans-serif" font-size="13" lengthAdjust="spacing" textLength="35" x="31" y="278.4951">afecta</text></g><!--link Interna to Flota--><g id="link_Interna_Flota"><path codeLine="30" d="M57.24,163.63 C64.25,166.76 71.89,170.09 79,173 C170.75,210.57 196.4,213.06 288,251 C296.92,254.7 301.2288,256.5614 309.4488,260.3814 " fill="none" id="Interna-to-Flota" style="stroke:#181818;stroke-width:1.0;"/><polygon fill="#181818" points="314.89,262.91,308.414,255.4896,310.3557,260.8028,305.0425,262.7445,314.89,262.91" style="stroke:#181818;stroke-width:1.0;"/><text fill="#000000" font-family="sans-serif" font-size="13" lengthAdjust="spacing" textLength="35" x="209" y="217.4951">afecta</text></g><!--link Externa to Ruta--><g id="link_Externa_Ruta"><path codeLine="31" d="M207.76,165.61 C202.26,168.18 196.49,170.76 191,173 C152.73,188.59 127.05,169.4 103,203 C93.24,216.64 93.0287,230.1076 95.8587,244.8476 " fill="none" id="Externa-to-Ruta" style="stroke:#181818;stroke-width:1.0;"/><polygon fill="#181818" points="96.99,250.74,99.2213,241.1472,96.0472,245.8297,91.3648,242.6556,96.99,250.74" style="stroke:#181818;stroke-width:1.0;"/><text fill="#000000" font-family="sans-serif" font-size="13" lengthAdjust="spacing" textLength="35" x="104" y="217.4951">afecta</text></g><!--link Externa to Horario--><g id="link_Externa_Horario"><path codeLine="32" d="M232.62,173.1 C228.05,212.05 217.13,297.81 202,369 C199.9,378.88 198.665,383.9099 196.065,393.0299 " fill="none" id="Externa-to-Horario" style="stroke:#181818;stroke-width:1.0;"/><polygon fill="#181818" points="194.42,398.8,200.7342,391.2415,195.7908,393.9916,193.0407,389.0482,194.42,398.8" style="stroke:#181818;stroke-width:1.0;"/><text fill="#000000" font-family="sans-serif" font-size="13" lengthAdjust="spacing" textLength="35" x="223" y="278.4951">afecta</text></g><!--link Ruta to Horario--><g id="link_Ruta_Horario"><path codeLine="34" d="M119.1,295.39 C125.57,304.35 132.93,314.99 139,325 C153.92,349.59 166.1478,373.8188 175.5178,393.3788 " fill="none" id="Ruta-to-Horario" style="stroke:#181818;stroke-width:1.0;"/><polygon fill="#181818" points="178.11,398.79,177.8292,388.9451,175.9499,394.2807,170.6143,392.4014,178.11,398.79" style="stroke:#181818;stroke-width:1.0;"/><text fill="#000000" font-family="sans-serif" font-size="13" lengthAdjust="spacing" textLength="28" x="165" y="352.4951">tiene</text></g><!--link Ruta to Paradas--><g id="link_Ruta_Paradas"><path codeLine="35" d="M102.13,295.23 C100.99,322.91 99.2568,365.0551 98.1168,392.7451 " fill="none" id="Ruta-to-Paradas" style="stroke:#181818;stroke-width:1.0;"/><polygon fill="#181818" points="97.87,398.74,102.2368,389.9122,98.0757,393.7442,94.2436,389.5831,97.87,398.74" style="stroke:#181818;stroke-width:1.0;"/><text fill="#000000" font-family="sans-serif" font-size="13" lengthAdjust="spacing" textLength="28" x="102" y="352.4951">tiene</text></g><!--link Flota to Veh?culos--><g id="link_Flota_Veh&#237;culos"><path codeLine="37" d="M325.66,295.49 C322.6,304.47 319.52,315.09 318,325 C315.04,344.33 315.75,349.57 318,369 C319.15,378.94 320.0358,383.939 322.3758,393.039 " fill="none" id="Flota-to-Veh&#237;culos" style="stroke:#181818;stroke-width:1.0;"/><polygon fill="#181818" points="323.87,398.85,325.5026,389.1374,322.6248,394.0075,317.7547,391.1297,323.87,398.85" style="stroke:#181818;stroke-width:1.0;"/><text fill="#000000" font-family="sans-serif" font-size="13" lengthAdjust="spacing" textLength="86" x="319" y="352.4951">compuesto por</text></g><!--link Veh?culos to Usuario--><g id="link_Veh&#237;culos_Usuario"><path codeLine="39" d="M330,443.18 C330,464.98 330,492.76 330,514.63 " fill="none" id="Veh&#237;culos-to-Usuario" style="stroke:#181818;stroke-width:1.0;"/><polygon fill="#181818" points="330,520.63,334,511.63,330,515.63,326,511.63,330,520.63" style="stroke:#181818;stroke-width:1.0;"/><text fill="#000000" font-family="sans-serif" font-size="13" lengthAdjust="spacing" textLength="47" x="331" y="487.4951">por usar</text></g><!--link Usuario to Conductor--><g id="link_Usuario_Conductor"><path codeLine="40" d="M335.47,565.18 C341.1,586.98 348.3292,614.9507 353.9792,636.8207 " fill="none" id="Usuario-to-Conductor" style="stroke:#181818;stroke-width:1.0;"/><polygon fill="#181818" points="355.48,642.63,357.1017,632.9156,354.2293,637.7889,349.356,634.9166,355.48,642.63" style="stroke:#181818;stroke-width:1.0;"/><text fill="#000000" font-family="sans-serif" font-size="13" lengthAdjust="spacing" textLength="42" x="348" y="609.4951">maneja</text></g><!--link Usuario to Pasajero--><g id="link_Usuario_Pasajero"><path codeLine="41" d="M317.47,565.18 C304.57,586.98 287.6353,615.5962 274.6953,637.4662 " fill="none" id="Usuario-to-Pasajero" style="stroke:#181818;stroke-width:1.0;"/><polygon fill="#181818" points="271.64,642.63,279.6655,636.9212,274.1861,638.3268,272.7804,632.8474,271.64,642.63" style="stroke:#181818;stroke-width:1.0;"/></g><!--link Pasajero to Tarifa--><g id="link_Pasajero_Tarifa"><path codeLine="43" d="M275.77,687.18 C293.02,708.98 316.0463,738.0553 333.3563,759.9253 " fill="none" id="Pasajero-to-Tarifa" style="stroke:#181818;stroke-width:1.0;"/><polygon fill="#181818" points="337.08,764.63,334.6309,755.0905,333.9769,760.7094,328.358,760.0555,337.08,764.63" style="stroke:#181818;stroke-width:1.0;"/><text fill="#000000" font-family="sans-serif" font-size="13" lengthAdjust="spacing" textLength="28" x="313" y="731.4951">paga</text></g><!--link Pagos to Abonos--><g id="link_Pagos_Abonos"><path codeLine="46" d="M440.2,173.13 C442.31,210.45 446.3511,281.6096 448.4611,318.9096 " fill="none" id="Pagos-to-Abonos" style="stroke:#181818;stroke-width:1.0;"/><polygon fill="#181818" points="448.8,324.9,452.2853,315.6885,448.5176,319.908,444.2981,316.1403,448.8,324.9" style="stroke:#181818;stroke-width:1.0;"/><text fill="#000000" font-family="sans-serif" font-size="13" lengthAdjust="spacing" textLength="67" x="443" y="217.4951">depende de</text></g><!--link Abonos to Tarifa--><g id="link_Abonos_Tarifa"><path codeLine="47" d="M450,369.19 C450,395.44 450,441.52 450,481 C450,481 450,481 450,666 C450,713.22 409.032,749.0787 380.702,768.8287 " fill="none" id="Abonos-to-Tarifa" style="stroke:#181818;stroke-width:1.0;"/><polygon fill="#181818" points="375.78,772.26,385.4505,770.3943,379.8817,769.4006,380.8754,763.8317,375.78,772.26" style="stroke:#181818;stroke-width:1.0;"/><text fill="#000000" font-family="sans-serif" font-size="13" lengthAdjust="spacing" textLength="113" x="451" y="548.4951">pone el precio de la</text></g><!--SRC=[bPF1JiCm38RlVefezxq01oI4G713i77tKc_BbCLLaY8an2Fn0bptOZXf4ben2RXKiJ_xTnoxUzEHqiPhIm3QOWXgyKJ-nMZ3AdfqeMSVIVMdpuqrcXVg3TvhvBtJaYuV3CLpynh9EsnyQjsnHs-uM8z3hE01FNPDujPo8y-qFttemNA5wp1CDAxPTOEEx9jGm0DvRkQk9Lvjs3LZ9HfR1FYbq-NoSjgYkb0hGux-afQR-4z2lcjBW6dPfHTU7tO6RBxW2A0SibfwN173BUc8CrA6S1xMMnTKQfvHd98VYf1ZvoZcjXee4sy0nie9VOzSgEPZFr28hEJD02OiXPPba3YXQWZeeReIRjiX0KTqTC0PRii2zPJTusuaJTn9Bp0E9f5nXOHqr9EJtwOZABvv8ZjIP5NlAOrS0Yt25m00]--></g></svg>