<?xml version="1.0" encoding="us-ascii" standalone="no"?><svg xmlns="http://www.w3.org/2000/svg" xmlns:xlink="http://www.w3.org/1999/xlink" contentStyleType="text/css" height="1121px" preserveAspectRatio="none" style="width:711px;height:1121px;background:#FFFFFF;" version="1.1" viewBox="0 0 711 1121" width="711px" zoomAndPan="magnify"><defs/><g><ellipse cx="352.5" cy="16" fill="#222222" rx="10" ry="10" style="stroke:#222222;stroke-width:1.0;"/><path d="M19.5,86 L685.5,86 A12.5,12.5 0 0 1 698,98.5 L698,113.6094 L7,113.6094 L7,98.5 A12.5,12.5 0 0 1 19.5,86 " fill="#F1F1F1" style="stroke:#F1F1F1;stroke-width:1.0;"/><rect fill="none" height="1029.6094" rx="12.5" ry="12.5" style="stroke:#181818;stroke-width:0.5;" width="691" x="7" y="86"/><line style="stroke:#181818;stroke-width:0.5;" x1="7" x2="698" y1="113.6094" y2="113.6094"/><text fill="#000000" font-family="sans-serif" font-size="14" lengthAdjust="spacing" textLength="85" x="310" y="105.5332">EmpezarRuta</text><ellipse cx="332" cy="134.6094" fill="#222222" rx="10" ry="10" style="stroke:#222222;stroke-width:1.0;"/><g id="EmpezarRuta.SubidaConductor"><rect fill="#F1F1F1" height="50" rx="12.5" ry="12.5" style="stroke:#181818;stroke-width:0.5;" width="130" x="267" y="198.6094"/><line style="stroke:#181818;stroke-width:0.5;" x1="267" x2="397" y1="226.2188" y2="226.2188"/><text fill="#000000" font-family="sans-serif" font-size="14" lengthAdjust="spacing" textLength="110" x="277" y="218.1426">SubidaConductor</text></g><g id="EmpezarRuta.ConfiguracionRuta"><rect fill="#F1F1F1" height="50" rx="12.5" ry="12.5" style="stroke:#181818;stroke-width:0.5;" width="138" x="263" y="302.6094"/><line style="stroke:#181818;stroke-width:0.5;" x1="263" x2="401" y1="330.2188" y2="330.2188"/><text fill="#000000" font-family="sans-serif" font-size="14" lengthAdjust="spacing" textLength="118" x="273" y="322.1426">ConfiguracionRuta</text></g><g id="EmpezarRuta.VerificacionHorario"><rect fill="#F1F1F1" height="50" rx="12.5" ry="12.5" style="stroke:#181818;stroke-width:0.5;" width="139" x="262.5" y="406.6094"/><line style="stroke:#181818;stroke-width:0.5;" x1="262.5" x2="401.5" y1="434.2188" y2="434.2188"/><text fill="#000000" font-family="sans-serif" font-size="14" lengthAdjust="spacing" textLength="119" x="272.5" y="426.1426">VerificacionHorario</text></g><g id="EmpezarRuta.Salida"><rect fill="#F1F1F1" height="50" rx="12.5" ry="12.5" style="stroke:#181818;stroke-width:0.5;" width="59" x="302.5" y="510.6094"/><line style="stroke:#181818;stroke-width:0.5;" x1="302.5" x2="361.5" y1="538.2188" y2="538.2188"/><text fill="#000000" font-family="sans-serif" font-size="14" lengthAdjust="spacing" textLength="39" x="312.5" y="530.1426">Salida</text></g><g id="EmpezarRuta.IniciaRuta"><rect fill="#F1F1F1" height="50" rx="12.5" ry="12.5" style="stroke:#181818;stroke-width:0.5;" width="82" x="291" y="597.6094"/><line style="stroke:#181818;stroke-width:0.5;" x1="291" x2="373" y1="625.2188" y2="625.2188"/><text fill="#000000" font-family="sans-serif" font-size="14" lengthAdjust="spacing" textLength="62" x="301" y="617.1426">IniciaRuta</text></g><g id="EmpezarRuta.Parada"><rect fill="#F1F1F1" height="50" rx="12.5" ry="12.5" style="stroke:#181818;stroke-width:0.5;" width="66" x="222" y="684.6094"/><line style="stroke:#181818;stroke-width:0.5;" x1="222" x2="288" y1="712.2188" y2="712.2188"/><text fill="#000000" font-family="sans-serif" font-size="14" lengthAdjust="spacing" textLength="46" x="232" y="704.1426">Parada</text></g><g id="EmpezarRuta.RecogePasajeros"><rect fill="#F1F1F1" height="50" rx="12.5" ry="12.5" style="stroke:#181818;stroke-width:0.5;" width="132" x="19" y="788.6094"/><line style="stroke:#181818;stroke-width:0.5;" x1="19" x2="151" y1="816.2188" y2="816.2188"/><text fill="#000000" font-family="sans-serif" font-size="14" lengthAdjust="spacing" textLength="112" x="29" y="808.1426">RecogePasajeros</text></g><g id="EmpezarRuta.DejaPasajeros"><rect fill="#F1F1F1" height="50" rx="12.5" ry="12.5" style="stroke:#181818;stroke-width:0.5;" width="112" x="99" y="892.6094"/><line style="stroke:#181818;stroke-width:0.5;" x1="99" x2="211" y1="920.2188" y2="920.2188"/><text fill="#000000" font-family="sans-serif" font-size="14" lengthAdjust="spacing" textLength="92" x="109" y="912.1426">DejaPasajeros</text></g><g id="EmpezarRuta.FinDeRuta"><rect fill="#F1F1F1" height="50" rx="12.5" ry="12.5" style="stroke:#181818;stroke-width:0.5;" width="88" x="338" y="788.6094"/><line style="stroke:#181818;stroke-width:0.5;" x1="338" x2="426" y1="816.2188" y2="816.2188"/><text fill="#000000" font-family="sans-serif" font-size="14" lengthAdjust="spacing" textLength="68" x="348" y="808.1426">FinDeRuta</text></g><g id="EmpezarRuta.Regreso"><rect fill="#F1F1F1" height="50" rx="12.5" ry="12.5" style="stroke:#181818;stroke-width:0.5;" width="74" x="399" y="892.6094"/><line style="stroke:#181818;stroke-width:0.5;" x1="399" x2="473" y1="920.2188" y2="920.2188"/><text fill="#000000" font-family="sans-serif" font-size="14" lengthAdjust="spacing" textLength="54" x="409" y="912.1426">Regreso</text></g><g id="EmpezarRuta.TerminaHorario"><rect fill="#F1F1F1" height="50" rx="12.5" ry="12.5" style="stroke:#181818;stroke-width:0.5;" width="118" x="377" y="996.6094"/><line style="stroke:#181818;stroke-width:0.5;" x1="377" x2="495" y1="1024.2188" y2="1024.2188"/><text fill="#000000" font-family="sans-serif" font-size="14" lengthAdjust="spacing" textLength="98" x="387" y="1016.1426">TerminaHorario</text></g><ellipse cx="436" cy="1094.6094" fill="none" rx="11" ry="11" style="stroke:#222222;stroke-width:1.0;"/><ellipse cx="436" cy="1094.6094" fill="#222222" rx="6" ry="6" style="stroke:#222222;stroke-width:1.0;"/><!--link *start*EmpezarRuta to SubidaConductor--><g id="link_*start*EmpezarRuta_SubidaConductor"><path d="M332,144.9194 C332,157.5494 332,174.5494 332,192.2594 " fill="none" id="*start*EmpezarRuta-to-SubidaConductor" style="stroke:#181818;stroke-width:1.0;"/><polygon fill="#181818" points="332,198.2594,336,189.2594,332,193.2594,328,189.2594,332,198.2594" style="stroke:#181818;stroke-width:1.0;"/><text fill="#000000" font-family="sans-serif" font-size="13" lengthAdjust="spacing" textLength="101" x="333" y="177.1045">"Conductor sube"</text></g><!--link SubidaConductor to ConfiguracionRuta--><g id="link_SubidaConductor_ConfiguracionRuta"><path d="M332,248.7794 C332,264.9194 332,280.0794 332,296.2594 " fill="none" id="SubidaConductor-to-ConfiguracionRuta" style="stroke:#181818;stroke-width:1.0;"/><polygon fill="#181818" points="332,302.2594,336,293.2594,332,297.2594,328,293.2594,332,302.2594" style="stroke:#181818;stroke-width:1.0;"/><text fill="#000000" font-family="sans-serif" font-size="13" lengthAdjust="spacing" textLength="104" x="333" y="281.1045">"Configura la ruta"</text></g><!--link ConfiguracionRuta to VerificacionHorario--><g id="link_ConfiguracionRuta_VerificacionHorario"><path d="M332,352.7794 C332,368.9194 332,384.0794 332,400.2594 " fill="none" id="ConfiguracionRuta-to-VerificacionHorario" style="stroke:#181818;stroke-width:1.0;"/><polygon fill="#181818" points="332,406.2594,336,397.2594,332,401.2594,328,397.2594,332,406.2594" style="stroke:#181818;stroke-width:1.0;"/><text fill="#000000" font-family="sans-serif" font-size="13" lengthAdjust="spacing" textLength="110" x="333" y="385.1045">"Verifica el horario"</text></g><!--link VerificacionHorario to Salida--><g id="link_VerificacionHorario_Salida"><path d="M332,456.7794 C332,472.9194 332,488.0794 332,504.2594 " fill="none" id="VerificacionHorario-to-Salida" style="stroke:#181818;stroke-width:1.0;"/><polygon fill="#181818" points="332,510.2594,336,501.2594,332,505.2594,328,501.2594,332,510.2594" style="stroke:#181818;stroke-width:1.0;"/><text fill="#000000" font-family="sans-serif" font-size="13" lengthAdjust="spacing" textLength="157" x="333" y="489.1045">"Sale de la sede de buses"</text></g><!--link Salida to IniciaRuta--><g id="link_Salida_IniciaRuta"><path d="M332,560.7394 C332,572.2294 332,579.9294 332,591.4194 " fill="none" id="Salida-to-IniciaRuta" style="stroke:#181818;stroke-width:1.0;"/><polygon fill="#181818" points="332,597.4194,336,588.4194,332,592.4194,328,588.4194,332,597.4194" style="stroke:#181818;stroke-width:1.0;"/></g><!--link IniciaRuta to Parada--><g id="link_IniciaRuta_Parada"><path d="M310.14,647.7394 C299.74,659.2294 291.3485,668.4829 280.9385,679.9729 " fill="none" id="IniciaRuta-to-Parada" style="stroke:#181818;stroke-width:1.0;"/><polygon fill="#181818" points="276.91,684.4194,285.9171,680.4354,280.2671,680.714,279.9885,675.064,276.91,684.4194" style="stroke:#181818;stroke-width:1.0;"/></g><!--link Parada to RecogePasajeros--><g id="link_Parada_RecogePasajeros"><path d="M221.91,713.7894 C176.42,718.9294 98.21,730.7594 81,752.6094 C73.19,762.5394 72.3417,770.6238 75.0117,782.5738 " fill="none" id="Parada-to-RecogePasajeros" style="stroke:#181818;stroke-width:1.0;"/><polygon fill="#181818" points="76.32,788.4294,78.2613,778.7737,75.2297,783.5497,70.4538,780.5182,76.32,788.4294" style="stroke:#181818;stroke-width:1.0;"/><text fill="#000000" font-family="sans-serif" font-size="13" lengthAdjust="spacing" textLength="114" x="82" y="767.1045">"Recoge pasajeros"</text></g><!--link RecogePasajeros to DejaPasajeros--><g id="link_RecogePasajeros_DejaPasajeros"><path d="M86.76,838.6094 C88.53,850.2394 92.04,863.9494 99,874.6094 C103.32,881.2194 104.4688,883.3147 110.6288,888.5247 " fill="none" id="RecogePasajeros-to-DejaPasajeros" style="stroke:#181818;stroke-width:1.0;"/><polygon fill="#181818" points="115.21,892.3994,110.9214,883.5333,111.3924,889.1705,105.7552,889.6415,115.21,892.3994" style="stroke:#181818;stroke-width:1.0;"/><text fill="#000000" font-family="sans-serif" font-size="13" lengthAdjust="spacing" textLength="96" x="100" y="871.1045">"Deja pasajeros"</text></g><!--link DejaPasajeros to Parada--><g id="link_DejaPasajeros_Parada"><path d="M183.58,892.2094 C188.62,886.8394 193.39,880.8594 197,874.6094 C216.77,840.3394 206.75,825.8894 220,788.6094 C226.56,770.1494 233.0682,755.4007 240.3482,740.2007 " fill="none" id="DejaPasajeros-to-Parada" style="stroke:#181818;stroke-width:1.0;"/><polygon fill="#181818" points="242.94,734.7894,235.4448,741.1786,240.7802,739.2988,242.6599,744.6343,242.94,734.7894" style="stroke:#181818;stroke-width:1.0;"/><text fill="#000000" font-family="sans-serif" font-size="13" lengthAdjust="spacing" textLength="107" x="221" y="819.1045">"Siguiente parada"</text></g><!--link Parada to FinDeRuta--><g id="link_Parada_FinDeRuta"><path d="M285.1,734.7794 C305.2,750.9194 326.8516,768.3227 347.0016,784.5027 " fill="none" id="Parada-to-FinDeRuta" style="stroke:#181818;stroke-width:1.0;"/><polygon fill="#181818" points="351.68,788.2594,347.1668,779.5054,347.7813,785.1288,342.1579,785.7433,351.68,788.2594" style="stroke:#181818;stroke-width:1.0;"/><text fill="#000000" font-family="sans-serif" font-size="13" lengthAdjust="spacing" textLength="86" x="328" y="767.1045">"Fin de la ruta"</text></g><!--link FinDeRuta to Regreso--><g id="link_FinDeRuta_Regreso"><path d="M394.8,838.7794 C403.34,854.9194 411.7316,870.7772 420.3016,886.9572 " fill="none" id="FinDeRuta-to-Regreso" style="stroke:#181818;stroke-width:1.0;"/><polygon fill="#181818" points="423.11,892.2594,422.4322,882.4339,420.7697,887.8409,415.3627,886.1784,423.11,892.2594" style="stroke:#181818;stroke-width:1.0;"/></g><!--link Regreso to IniciaRuta--><g id="link_Regreso_IniciaRuta"><path d="M438.73,892.2194 C440.97,866.2294 442.66,824.0094 435,788.6094 C422.83,732.3394 385.1392,682.3377 358.6792,652.2077 " fill="none" id="Regreso-to-IniciaRuta" style="stroke:#181818;stroke-width:1.0;"/><polygon fill="#181818" points="354.72,647.6994,357.6532,657.1013,358.0193,651.4563,363.6643,651.8224,354.72,647.6994" style="stroke:#181818;stroke-width:1.0;"/></g><!--link Regreso to TerminaHorario--><g id="link_Regreso_TerminaHorario"><path d="M436,942.7794 C436,958.9194 436,974.0794 436,990.2594 " fill="none" id="Regreso-to-TerminaHorario" style="stroke:#181818;stroke-width:1.0;"/><polygon fill="#181818" points="436,996.2594,440,987.2594,436,991.2594,432,987.2594,436,996.2594" style="stroke:#181818;stroke-width:1.0;"/><text fill="#000000" font-family="sans-serif" font-size="13" lengthAdjust="spacing" textLength="251" x="437" y="975.1045">"Regresa la sede de buses y finaliza el d&#237;a"</text></g><!--link TerminaHorario to *end*EmpezarRuta--><g id="link_TerminaHorario_*end*EmpezarRuta"><path d="M436,1046.6494 C436,1059.1994 436,1067.8894 436,1077.4594 " fill="none" id="TerminaHorario-to-*end*EmpezarRuta" style="stroke:#181818;stroke-width:1.0;"/><polygon fill="#181818" points="436,1083.4594,440,1074.4594,436,1078.4594,432,1074.4594,436,1083.4594" style="stroke:#181818;stroke-width:1.0;"/></g><!--link *start* to EmpezarRuta--><g id="link_*start*_EmpezarRuta"><path d="M352.5,26.16 C352.5,37.38 352.5,52.36 352.5,79.88 " fill="none" id="*start*-to-EmpezarRuta" style="stroke:#181818;stroke-width:1.0;"/><polygon fill="#181818" points="352.5,85.88,356.5,76.88,352.5,80.88,348.5,76.88,352.5,85.88" style="stroke:#181818;stroke-width:1.0;"/></g><!--SRC=[RL9BJiD03DtFAQmkaNe15aY8Wc1NbOeDOk4cJd19PgBvI534aJW55sFi8MhIiediv_VyUPFmndP0ZptKr63gufRUutN7hUt9HgZoXxmnpnSli5nUmMq_q07z9aKq9aICD8NWqm2CrCUqunfldArJ5Ps7IrWSav1sjCZaKv88SzPmcpnMxAosBT82GeVWCoZgSwRedyXpmvM2zywZPoSTHXYeWzS2Iu__sBe-Tdap4UQ8iZioE52juIu52hf_OOdWmNB5gCx09D7QEZjS2ru2nJPKkPRM671FtWMPL20OHamcdD94kg8zpeG2p6Lpod47FIXxnlAmC2Ysc2zsntP5e-yv-RjzDFrOBbUqdeBJHJKwzs9Qs9BlsUBaMKeLpzo53sWoi-E3lbZzywtJJnf8p_p3cI_p2m00]--></g></svg>