<?xml version="1.0" encoding="us-ascii" standalone="no"?><svg xmlns="http://www.w3.org/2000/svg" xmlns:xlink="http://www.w3.org/1999/xlink" contentStyleType="text/css" height="1503px" preserveAspectRatio="none" style="width:523px;height:1503px;background:#FFFFFF;" version="1.1" viewBox="0 0 523 1503" width="523px" zoomAndPan="magnify"><defs/><g><ellipse cx="213.5" cy="16" fill="#222222" rx="10" ry="10" style="stroke:#222222;stroke-width:1.0;"/><path d="M81,87 L346.5,87 A12.5,12.5 0 0 1 359,99.5 L359,114.6094 L68.5,114.6094 L68.5,99.5 A12.5,12.5 0 0 1 81,87 " fill="#F1F1F1" style="stroke:#F1F1F1;stroke-width:1.0;"/><rect fill="none" height="571.6094" rx="12.5" ry="12.5" style="stroke:#181818;stroke-width:0.5;" width="290.5" x="68.5" y="87"/><line style="stroke:#181818;stroke-width:0.5;" x1="68.5" x2="359" y1="114.6094" y2="114.6094"/><text fill="#000000" font-family="sans-serif" font-size="14" lengthAdjust="spacing" textLength="74" x="176.75" y="106.5332">InicioDelDia</text><ellipse cx="150" cy="135.6094" fill="#222222" rx="10" ry="10" style="stroke:#222222;stroke-width:1.0;"/><g id="InicioDelDia.Preparacion"><rect fill="#F1F1F1" height="50" rx="12.5" ry="12.5" style="stroke:#181818;stroke-width:0.5;" width="97" x="101.5" y="182.6094"/><line style="stroke:#181818;stroke-width:0.5;" x1="101.5" x2="198.5" y1="210.2188" y2="210.2188"/><text fill="#000000" font-family="sans-serif" font-size="14" lengthAdjust="spacing" textLength="77" x="111.5" y="202.1426">Preparacion</text></g><g id="InicioDelDia.SubidaConductor"><rect fill="#F1F1F1" height="50" rx="12.5" ry="12.5" style="stroke:#181818;stroke-width:0.5;" width="130" x="85" y="286.6094"/><line style="stroke:#181818;stroke-width:0.5;" x1="85" x2="215" y1="314.2188" y2="314.2188"/><text fill="#000000" font-family="sans-serif" font-size="14" lengthAdjust="spacing" textLength="110" x="95" y="306.1426">SubidaConductor</text></g><g id="InicioDelDia.ConfiguracionRuta"><rect fill="#F1F1F1" height="50" rx="12.5" ry="12.5" style="stroke:#181818;stroke-width:0.5;" width="138" x="81" y="390.6094"/><line style="stroke:#181818;stroke-width:0.5;" x1="81" x2="219" y1="418.2188" y2="418.2188"/><text fill="#000000" font-family="sans-serif" font-size="14" lengthAdjust="spacing" textLength="118" x="91" y="410.1426">ConfiguracionRuta</text></g><g id="InicioDelDia.VerificacionHorario"><rect fill="#F1F1F1" height="50" rx="12.5" ry="12.5" style="stroke:#181818;stroke-width:0.5;" width="139" x="80.5" y="494.6094"/><line style="stroke:#181818;stroke-width:0.5;" x1="80.5" x2="219.5" y1="522.2188" y2="522.2188"/><text fill="#000000" font-family="sans-serif" font-size="14" lengthAdjust="spacing" textLength="119" x="90.5" y="514.1426">VerificacionHorario</text></g><g id="InicioDelDia.Salida"><rect fill="#F1F1F1" height="50" rx="12.5" ry="12.5" style="stroke:#181818;stroke-width:0.5;" width="59" x="120.5" y="598.6094"/><line style="stroke:#181818;stroke-width:0.5;" x1="120.5" x2="179.5" y1="626.2188" y2="626.2188"/><text fill="#000000" font-family="sans-serif" font-size="14" lengthAdjust="spacing" textLength="39" x="130.5" y="618.1426">Salida</text></g><!--link *start*InicioDelDia to Preparacion--><g id="link_*start*InicioDelDia_Preparacion"><path d="M150,145.7594 C150,155.0294 150,163.7494 150,176.3894 " fill="none" id="*start*InicioDelDia-to-Preparacion" style="stroke:#181818;stroke-width:1.0;"/><polygon fill="#181818" points="150,182.3894,154,173.3894,150,177.3894,146,173.3894,150,182.3894" style="stroke:#181818;stroke-width:1.0;"/></g><!--link Preparacion to SubidaConductor--><g id="link_Preparacion_SubidaConductor"><path d="M150,232.7794 C150,248.9194 150,264.0794 150,280.2594 " fill="none" id="Preparacion-to-SubidaConductor" style="stroke:#181818;stroke-width:1.0;"/><polygon fill="#181818" points="150,286.2594,154,277.2594,150,281.2594,146,277.2594,150,286.2594" style="stroke:#181818;stroke-width:1.0;"/><text fill="#000000" font-family="sans-serif" font-size="13" lengthAdjust="spacing" textLength="101" x="151" y="265.1045">"Conductor sube"</text></g><!--link SubidaConductor to ConfiguracionRuta--><g id="link_SubidaConductor_ConfiguracionRuta"><path d="M150,336.7794 C150,352.9194 150,368.0794 150,384.2594 " fill="none" id="SubidaConductor-to-ConfiguracionRuta" style="stroke:#181818;stroke-width:1.0;"/><polygon fill="#181818" points="150,390.2594,154,381.2594,150,385.2594,146,381.2594,150,390.2594" style="stroke:#181818;stroke-width:1.0;"/><text fill="#000000" font-family="sans-serif" font-size="13" lengthAdjust="spacing" textLength="104" x="151" y="369.1045">"Configura la ruta"</text></g><!--link ConfiguracionRuta to VerificacionHorario--><g id="link_ConfiguracionRuta_VerificacionHorario"><path d="M150,440.7794 C150,456.9194 150,472.0794 150,488.2594 " fill="none" id="ConfiguracionRuta-to-VerificacionHorario" style="stroke:#181818;stroke-width:1.0;"/><polygon fill="#181818" points="150,494.2594,154,485.2594,150,489.2594,146,485.2594,150,494.2594" style="stroke:#181818;stroke-width:1.0;"/><text fill="#000000" font-family="sans-serif" font-size="13" lengthAdjust="spacing" textLength="110" x="151" y="473.1045">"Verifica el horario"</text></g><!--link VerificacionHorario to Salida--><g id="link_VerificacionHorario_Salida"><path d="M150,544.7794 C150,560.9194 150,576.0794 150,592.2594 " fill="none" id="VerificacionHorario-to-Salida" style="stroke:#181818;stroke-width:1.0;"/><polygon fill="#181818" points="150,598.2594,154,589.2594,150,593.2594,146,589.2594,150,598.2594" style="stroke:#181818;stroke-width:1.0;"/><text fill="#000000" font-family="sans-serif" font-size="13" lengthAdjust="spacing" textLength="198" x="151" y="577.1045">"Sale del lugar principal de buses"</text></g><path d="M19.5,737 L407.5,737 A12.5,12.5 0 0 1 420,749.5 L420,764.6094 L7,764.6094 L7,749.5 A12.5,12.5 0 0 1 19.5,737 " fill="#F1F1F1" style="stroke:#F1F1F1;stroke-width:1.0;"/><rect fill="none" height="363.6094" rx="12.5" ry="12.5" style="stroke:#181818;stroke-width:0.5;" width="413" x="7" y="737"/><line style="stroke:#181818;stroke-width:0.5;" x1="7" x2="420" y1="764.6094" y2="764.6094"/><text fill="#000000" font-family="sans-serif" font-size="14" lengthAdjust="spacing" textLength="47" x="190" y="756.5332">EnRuta</text><ellipse cx="218" cy="785.6094" fill="#222222" rx="10" ry="10" style="stroke:#222222;stroke-width:1.0;"/><g id="EnRuta.Parada"><rect fill="#F1F1F1" height="50" rx="12.5" ry="12.5" style="stroke:#181818;stroke-width:0.5;" width="66" x="185" y="832.6094"/><line style="stroke:#181818;stroke-width:0.5;" x1="185" x2="251" y1="860.2188" y2="860.2188"/><text fill="#000000" font-family="sans-serif" font-size="14" lengthAdjust="spacing" textLength="46" x="195" y="852.1426">Parada</text></g><g id="EnRuta.RecogePasajeros"><rect fill="#F1F1F1" height="50" rx="12.5" ry="12.5" style="stroke:#181818;stroke-width:0.5;" width="132" x="19" y="936.6094"/><line style="stroke:#181818;stroke-width:0.5;" x1="19" x2="151" y1="964.2188" y2="964.2188"/><text fill="#000000" font-family="sans-serif" font-size="14" lengthAdjust="spacing" textLength="112" x="29" y="956.1426">RecogePasajeros</text></g><g id="EnRuta.DejaPasajeros"><rect fill="#F1F1F1" height="50" rx="12.5" ry="12.5" style="stroke:#181818;stroke-width:0.5;" width="112" x="147" y="1040.6094"/><line style="stroke:#181818;stroke-width:0.5;" x1="147" x2="259" y1="1068.2188" y2="1068.2188"/><text fill="#000000" font-family="sans-serif" font-size="14" lengthAdjust="spacing" textLength="92" x="157" y="1060.1426">DejaPasajeros</text></g><g id="EnRuta.FinDeRuta"><rect fill="#F1F1F1" height="50" rx="12.5" ry="12.5" style="stroke:#181818;stroke-width:0.5;" width="88" x="174" y="936.6094"/><line style="stroke:#181818;stroke-width:0.5;" x1="174" x2="262" y1="964.2188" y2="964.2188"/><text fill="#000000" font-family="sans-serif" font-size="14" lengthAdjust="spacing" textLength="68" x="184" y="956.1426">FinDeRuta</text></g><!--link *start*EnRuta to Parada--><g id="link_*start*EnRuta_Parada"><path d="M218,795.7594 C218,805.0294 218,813.7494 218,826.3894 " fill="none" id="*start*EnRuta-to-Parada" style="stroke:#181818;stroke-width:1.0;"/><polygon fill="#181818" points="218,832.3894,222,823.3894,218,827.3894,214,823.3894,218,832.3894" style="stroke:#181818;stroke-width:1.0;"/></g><!--link Parada to RecogePasajeros--><g id="link_Parada_RecogePasajeros"><path d="M184.87,861.4494 C157.6,865.5794 120,875.7194 98,900.6094 C89.39,910.3494 86.5991,918.4664 85.4491,930.5364 " fill="none" id="Parada-to-RecogePasajeros" style="stroke:#181818;stroke-width:1.0;"/><polygon fill="#181818" points="84.88,936.5094,89.7156,927.9293,85.3542,931.5319,81.7517,927.1706,84.88,936.5094" style="stroke:#181818;stroke-width:1.0;"/><text fill="#000000" font-family="sans-serif" font-size="13" lengthAdjust="spacing" textLength="114" x="99" y="915.1045">"Recoge pasajeros"</text></g><!--link RecogePasajeros to DejaPasajeros--><g id="link_RecogePasajeros_DejaPasajeros"><path d="M112.96,986.7794 C131.64,1002.9194 151.5706,1020.1559 170.2906,1036.3359 " fill="none" id="RecogePasajeros-to-DejaPasajeros" style="stroke:#181818;stroke-width:1.0;"/><polygon fill="#181818" points="174.83,1040.2594,170.6365,1031.3479,171.0472,1036.9898,165.4052,1037.4004,174.83,1040.2594" style="stroke:#181818;stroke-width:1.0;"/><text fill="#000000" font-family="sans-serif" font-size="13" lengthAdjust="spacing" textLength="96" x="152" y="1019.1045">"Deja pasajeros"</text></g><!--link DejaPasajeros to Parada--><g id="link_DejaPasajeros_Parada"><path d="M235.45,1040.5794 C241.71,1035.0894 247.9,1028.9794 253,1022.6094 C285.57,981.9694 294.65,969.2094 307,918.6094 C308.9,910.8394 311.28,907.3694 307,900.6094 C294.74,881.2694 276.6975,872.3234 256.7875,866.6134 " fill="none" id="DejaPasajeros-to-Parada" style="stroke:#181818;stroke-width:1.0;"/><polygon fill="#181818" points="251.02,864.9594,258.5685,871.2855,255.8263,866.3378,260.774,863.5955,251.02,864.9594" style="stroke:#181818;stroke-width:1.0;"/><text fill="#000000" font-family="sans-serif" font-size="13" lengthAdjust="spacing" textLength="107" x="303" y="967.1045">"Siguiente parada"</text></g><!--link Parada to FinDeRuta--><g id="link_Parada_FinDeRuta"><path d="M218,882.7794 C218,898.9194 218,914.0794 218,930.2594 " fill="none" id="Parada-to-FinDeRuta" style="stroke:#181818;stroke-width:1.0;"/><polygon fill="#181818" points="218,936.2594,222,927.2594,218,931.2594,214,927.2594,218,936.2594" style="stroke:#181818;stroke-width:1.0;"/><text fill="#000000" font-family="sans-serif" font-size="13" lengthAdjust="spacing" textLength="86" x="219" y="915.1045">"Fin de la ruta"</text></g><path d="M39.5,1179 L387.5,1179 A12.5,12.5 0 0 1 400,1191.5 L400,1206.6094 L27,1206.6094 L27,1191.5 A12.5,12.5 0 0 1 39.5,1179 " fill="#F1F1F1" style="stroke:#F1F1F1;stroke-width:1.0;"/><rect fill="none" height="318.6094" rx="12.5" ry="12.5" style="stroke:#181818;stroke-width:0.5;" width="373" x="27" y="1179"/><line style="stroke:#181818;stroke-width:0.5;" x1="27" x2="400" y1="1206.6094" y2="1206.6094"/><text fill="#000000" font-family="sans-serif" font-size="14" lengthAdjust="spacing" textLength="62" x="182.5" y="1198.5332">FinDelDia</text><ellipse cx="86" cy="1227.6094" fill="#222222" rx="10" ry="10" style="stroke:#222222;stroke-width:1.0;"/><g id="FinDelDia.Regreso"><rect fill="#F1F1F1" height="50" rx="12.5" ry="12.5" style="stroke:#181818;stroke-width:0.5;" width="74" x="49" y="1274.6094"/><line style="stroke:#181818;stroke-width:0.5;" x1="49" x2="123" y1="1302.2188" y2="1302.2188"/><text fill="#000000" font-family="sans-serif" font-size="14" lengthAdjust="spacing" textLength="54" x="59" y="1294.1426">Regreso</text></g><g id="FinDelDia.FinalizarDia"><rect fill="#F1F1F1" height="50" rx="12.5" ry="12.5" style="stroke:#181818;stroke-width:0.5;" width="94" x="39" y="1378.6094"/><line style="stroke:#181818;stroke-width:0.5;" x1="39" x2="133" y1="1406.2188" y2="1406.2188"/><text fill="#000000" font-family="sans-serif" font-size="14" lengthAdjust="spacing" textLength="74" x="49" y="1398.1426">FinalizarDia</text></g><ellipse cx="86" cy="1476.6094" fill="none" rx="11" ry="11" style="stroke:#222222;stroke-width:1.0;"/><ellipse cx="86" cy="1476.6094" fill="#222222" rx="6" ry="6" style="stroke:#222222;stroke-width:1.0;"/><!--link *start*FinDelDia to Regreso--><g id="link_*start*FinDelDia_Regreso"><path d="M86,1237.7594 C86,1247.0294 86,1255.7494 86,1268.3894 " fill="none" id="*start*FinDelDia-to-Regreso" style="stroke:#181818;stroke-width:1.0;"/><polygon fill="#181818" points="86,1274.3894,90,1265.3894,86,1269.3894,82,1265.3894,86,1274.3894" style="stroke:#181818;stroke-width:1.0;"/></g><!--link Regreso to FinalizarDia--><g id="link_Regreso_FinalizarDia"><path d="M86,1324.7794 C86,1340.9194 86,1356.0794 86,1372.2594 " fill="none" id="Regreso-to-FinalizarDia" style="stroke:#181818;stroke-width:1.0;"/><polygon fill="#181818" points="86,1378.2594,90,1369.2594,86,1373.2594,82,1369.2594,86,1378.2594" style="stroke:#181818;stroke-width:1.0;"/><text fill="#000000" font-family="sans-serif" font-size="13" lengthAdjust="spacing" textLength="303" x="87" y="1357.1045">"Regresa al lugar principal de buses y finaliza el d&#237;a"</text></g><!--link FinalizarDia to *end*FinDelDia--><g id="link_FinalizarDia_*end*FinDelDia"><path d="M86,1428.6494 C86,1441.1994 86,1449.8894 86,1459.4594 " fill="none" id="FinalizarDia-to-*end*FinDelDia" style="stroke:#181818;stroke-width:1.0;"/><polygon fill="#181818" points="86,1465.4594,90,1456.4594,86,1460.4594,82,1456.4594,86,1465.4594" style="stroke:#181818;stroke-width:1.0;"/></g><!--link *start* to InicioDelDia--><g id="link_*start*_InicioDelDia"><path d="M213.5,26.13 C213.5,37.74 213.5,53.61 213.5,80.93 " fill="none" id="*start*-to-InicioDelDia" style="stroke:#181818;stroke-width:1.0;"/><polygon fill="#181818" points="213.5,86.93,217.5,77.93,213.5,81.93,209.5,77.93,213.5,86.93" style="stroke:#181818;stroke-width:1.0;"/></g><!--link InicioDelDia to EnRuta--><g id="link_InicioDelDia_EnRuta"><path d="M83.91,659.02 C84.18,675.16 86.24,691.23 90.5,707 C93.18,716.93 94.3321,721.26 98.0721,731.12 " fill="none" id="InicioDelDia-to-EnRuta" style="stroke:#181818;stroke-width:1.0;"/><polygon fill="#181818" points="100.2,736.73,100.7481,726.8964,98.4267,732.055,93.2681,729.7336,100.2,736.73" style="stroke:#181818;stroke-width:1.0;"/><text fill="#000000" font-family="sans-serif" font-size="13" lengthAdjust="spacing" textLength="198" x="91.5" y="703.4951">"Sale del lugar principal de buses"</text></g><!--link EnRuta to InicioDelDia--><g id="link_EnRuta_InicioDelDia"><path d="M287.81,736.79 C290.41,726.81 292.68,716.84 294.5,707 C297.4,691.35 298.7357,681.3395 298.9357,665.1995 " fill="none" id="EnRuta-to-InicioDelDia" style="stroke:#181818;stroke-width:1.0;"/><polygon fill="#181818" points="299.01,659.2,294.8988,668.1497,298.948,664.1996,302.8982,668.2489,299.01,659.2" style="stroke:#181818;stroke-width:1.0;"/><text fill="#000000" font-family="sans-serif" font-size="13" lengthAdjust="spacing" textLength="219" x="296.5" y="703.4951">"Inicia de nuevo si el horario contin&#250;a"</text></g><!--link EnRuta to FinDelDia--><g id="link_EnRuta_FinDelDia"><path d="M213.5,1101.3 C213.5,1127.16 213.5,1147.59 213.5,1172.96 " fill="none" id="EnRuta-to-FinDelDia" style="stroke:#181818;stroke-width:1.0;"/><polygon fill="#181818" points="213.5,1178.96,217.5,1169.96,213.5,1173.96,209.5,1169.96,213.5,1178.96" style="stroke:#181818;stroke-width:1.0;"/><text fill="#000000" font-family="sans-serif" font-size="13" lengthAdjust="spacing" textLength="112" x="214.5" y="1145.4951">"Horario terminado"</text></g><!--SRC=[ZLBBJiCm4BpdArOz8lK7E20XKWItgY0kYCCssOOjhXtPCU8XFeaVuDeVOzT9shg0n2NoZcV6kxC9JsnRzBY1cbOOJNTBBzsvuSPko7PGoOTyKToVFC1qUWRNbYjs9PcIiIX2Xnrb6BmN02DvxacjvT8AUb2bsvkuv1eldArZrJaFfp3P5o4kQIAYOv8AfLfn4tkhHUnmaFOW60GleAf_CbL_HvvNN2NmoddqxDHXX84CFFQmUlp6JksZaSvKA2UIz0oOsA27rhEjk4KZ62nZe30fFeeYIqaDPhlU_s4mH3reif0bqnerttH8s88grz0S0wx9kw1lz12q8wQZ7TDKMj8QCw42kIodx7j8eqZShFyCj0bJVjxR9TkInicbq25tAvESPlj5PP49EzMe0XlfsK7WWrr1vMp7TlibDWSUwRdHODoV_D8RjbYxNR1xsc6s2sey1PUYIgVHKdR_XdvmxUyGyEy5mYki1fMsN6y_KpAParhBmvB1Dm00]--></g></svg>